<svg width="14" height="22" viewBox="0 0 14 22" fill="none" xmlns="http://www.w3.org/2000/svg">
<g id="Group 21175">
<path id="Subtract" fill-rule="evenodd" clip-rule="evenodd" d="M10.5146 15.4642C10.3395 14.1146 10.1614 12.7416 11.0421 12.2431C11.0817 12.2206 11.1207 12.2002 11.1576 12.1808C11.4465 12.0293 11.6053 11.9461 10.8962 11.5267C10.1309 11.1417 10.0541 8.76596 9.67181 6.79143C9.64375 6.64652 9.61612 6.50377 9.58881 6.36412C9.48651 5.84104 9.73192 5.14787 10.2472 5.28401C10.6059 5.55078 10.8139 6.47807 11.0524 7.54185C11.4019 9.10012 11.817 10.9513 12.8679 11.4483C13.8401 11.9891 13.6224 12.0965 13.2263 12.2918C13.1757 12.3168 13.1222 12.3432 13.0679 12.3721C11.8603 13.0149 12.1045 14.7854 12.3446 16.5257C12.5645 18.1199 12.7809 19.6887 11.8746 20.3422C9.41535 22.1917 4.55365 22.1937 2.09439 20.3422C1.18661 19.6903 1.40309 18.1199 1.62305 16.5243C1.86296 14.784 2.107 13.0136 0.901126 12.3721C0.86349 12.3521 0.825157 12.3328 0.787479 12.3139C0.422855 12.1309 0.119501 11.9786 1.10114 11.4483C2.15014 10.9551 2.56482 9.1028 2.91392 7.54345C3.15254 6.47757 3.36052 5.54856 3.7195 5.28401C4.298 5.12323 4.55185 5.94244 4.42852 6.53006C4.41077 6.61465 4.39287 6.70021 4.37481 6.78654C3.96132 8.76313 3.84639 11.1442 3.08146 11.5267C2.36558 11.9379 2.58681 12.056 2.85272 12.1979C2.88019 12.2126 2.90815 12.2275 2.9356 12.2431C3.81501 12.7405 3.63703 14.1135 3.46208 15.4631C3.30166 16.7005 2.7606 18.2523 3.42262 18.7578C5.21609 20.1936 8.7616 20.1921 10.5551 18.7578C11.216 18.251 10.675 16.7005 10.5146 15.4642Z" fill="#FF842C"/>
<g id="Vector">
<mask id="path-2-inside-1_606_6279" fill="white">
<path d="M5.14702 9.98532C5.25494 9.95634 5.27236 9.6708 5.18594 9.34754C5.09952 9.02429 4.94198 8.78573 4.83407 8.81471C4.72615 8.84369 4.70873 9.12924 4.79515 9.45249C4.88157 9.77575 5.03911 10.0143 5.14702 9.98532Z"/>
</mask>
<path d="M5.14702 9.98532C5.25494 9.95634 5.27236 9.6708 5.18594 9.34754C5.09952 9.02429 4.94198 8.78573 4.83407 8.81471C4.72615 8.84369 4.70873 9.12924 4.79515 9.45249C4.88157 9.77575 5.03911 10.0143 5.14702 9.98532Z" fill="#FF842C"/>
<path d="M4.77105 9.45896C4.80564 9.58833 4.81422 9.69308 4.81069 9.75102C4.80878 9.78234 4.80473 9.77628 4.8164 9.74918C4.82567 9.72765 4.88177 9.61175 5.03607 9.57031L5.25798 10.4003C5.46624 10.3444 5.56498 10.1819 5.60517 10.0886C5.64776 9.98973 5.6629 9.88665 5.66803 9.80255C5.67858 9.62966 5.65266 9.43001 5.60083 9.23612L4.77105 9.45896ZM5.03607 9.57031C5.19038 9.52887 5.29678 9.60113 5.31555 9.61513C5.33918 9.63275 5.33869 9.64003 5.32141 9.61386C5.28945 9.56546 5.24463 9.47044 5.21004 9.34107L4.38026 9.56391C4.4321 9.75779 4.50926 9.94369 4.60465 10.0881C4.65104 10.1584 4.71557 10.2401 4.80179 10.3044C4.88315 10.365 5.04971 10.4563 5.25798 10.4003L5.03607 9.57031ZM5.21004 9.34107C5.17545 9.2117 5.16687 9.10696 5.1704 9.04902C5.17231 9.0177 5.17636 9.02375 5.16469 9.05085C5.15542 9.07239 5.09933 9.18829 4.94502 9.22973L4.72311 8.3997C4.51485 8.45563 4.41611 8.61809 4.37592 8.71142C4.33333 8.81031 4.31819 8.91339 4.31306 8.99748C4.30251 9.17037 4.32843 9.37003 4.38026 9.56391L5.21004 9.34107ZM4.94502 9.22973C4.79071 9.27117 4.68431 9.1989 4.66554 9.1849C4.64191 9.16728 4.6424 9.16001 4.65968 9.18618C4.69165 9.23458 4.73647 9.32959 4.77105 9.45896L5.60083 9.23612C5.54899 9.04224 5.47183 8.85635 5.37645 8.71191C5.33005 8.64165 5.26552 8.55997 5.1793 8.49567C5.09794 8.43499 4.93138 8.34377 4.72311 8.3997L4.94502 9.22973Z" fill="#FF842C" mask="url(#path-2-inside-1_606_6279)"/>
</g>
<g id="Vector_2">
<mask id="path-4-inside-2_606_6279" fill="white">
<path d="M9.24844 9.45409C9.33486 9.13084 9.31744 8.84529 9.20953 8.81631C9.10161 8.78733 8.94407 9.02589 8.85765 9.34914C8.77123 9.6724 8.78865 9.95794 8.89657 9.98692C9.00448 10.0159 9.16202 9.77735 9.24844 9.45409Z"/>
</mask>
<path d="M9.24844 9.45409C9.33486 9.13084 9.31744 8.84529 9.20953 8.81631C9.10161 8.78733 8.94407 9.02589 8.85765 9.34914C8.77123 9.6724 8.78865 9.95794 8.89657 9.98692C9.00448 10.0159 9.16202 9.77735 9.24844 9.45409Z" fill="#FF842C"/>
<path d="M9.09857 9.23133C8.94427 9.18989 8.88817 9.07399 8.8789 9.05245C8.86723 9.02535 8.87128 9.0193 8.87319 9.05062C8.87672 9.10856 8.86814 9.2133 8.83355 9.34267L9.66333 9.56551C9.71516 9.37163 9.74108 9.17197 9.73053 8.99908C9.7254 8.91499 9.71026 8.81191 9.66767 8.71302C9.62748 8.61969 9.52874 8.45723 9.32048 8.4013L9.09857 9.23133ZM8.83355 9.34267C8.79897 9.47204 8.75415 9.56706 8.72218 9.61546C8.7049 9.64163 8.70441 9.63436 8.72804 9.61673C8.74681 9.60273 8.85321 9.53047 9.00752 9.57191L8.78561 10.4019C8.99388 10.4579 9.16044 10.3666 9.2418 10.306C9.32802 10.2417 9.39255 10.16 9.43895 10.0897C9.53433 9.94529 9.61149 9.75939 9.66333 9.56551L8.83355 9.34267ZM9.00752 9.57191C9.16183 9.61335 9.21792 9.72925 9.22719 9.75078C9.23886 9.77788 9.23481 9.78394 9.2329 9.75262C9.22937 9.69468 9.23795 9.58993 9.27254 9.46056L8.44276 9.23772C8.39093 9.43161 8.36501 9.63126 8.37556 9.80415C8.38069 9.88825 8.39583 9.99133 8.43842 10.0902C8.47861 10.1835 8.57735 10.346 8.78561 10.4019L9.00752 9.57191ZM9.27254 9.46056C9.30713 9.33119 9.35195 9.23618 9.38391 9.18778C9.40119 9.16161 9.40168 9.16888 9.37805 9.1865C9.35928 9.2005 9.25288 9.27277 9.09857 9.23133L9.32048 8.4013C9.11221 8.34537 8.94566 8.43659 8.86429 8.49727C8.77808 8.56157 8.71354 8.64325 8.66715 8.71351C8.57176 8.85795 8.4946 9.04384 8.44276 9.23772L9.27254 9.46056Z" fill="#FF842C" mask="url(#path-4-inside-2_606_6279)"/>
</g>
<path id="Vector_3" d="M12.8705 1.85772C12.7286 2.66908 12.3268 3.27458 11.9734 3.21403C11.623 3.15045 11.4538 2.44202 11.5988 1.63065C11.7408 0.819285 12.1426 0.21076 12.496 0.274337C12.8464 0.337914 13.0155 1.04635 12.8705 1.85772Z" fill="#FF842C"/>
<path id="Vector_4" d="M1.92171 3.21403C1.57131 3.27458 1.16956 2.66908 1.02457 1.85772C0.879576 1.04635 1.04873 0.337914 1.40215 0.274337C1.75255 0.21076 2.15431 0.819285 2.2993 1.63065C2.44429 2.44202 2.27513 3.15045 1.92171 3.21403Z" fill="#FF842C"/>
</g>
</svg>
