<svg width="24" height="24" viewBox="0 0 24 24" fill="none" xmlns="http://www.w3.org/2000/svg">
<path d="M18.6818 18.8859L18.6809 18.8873C18.2743 19.512 17.8051 20.1761 17.2752 20.6841C16.7414 21.1957 16.2048 21.4926 15.663 21.5L15.6615 21.5001C15.2008 21.5079 14.9145 21.3783 14.5009 21.1912L14.486 21.1845L14.4847 21.1839C14.4666 21.1757 14.4484 21.1675 14.43 21.1592C13.9398 20.9385 13.3428 20.6697 12.3372 20.68C11.3063 20.6805 10.6994 20.953 10.1928 21.1805L10.1879 21.1827L10.1851 21.1839L10.1737 21.1889C9.74971 21.3763 9.45178 21.508 8.97828 21.5001L8.97694 21.5C8.43311 21.4924 7.9137 21.221 7.40499 20.7523C6.89621 20.2835 6.44368 19.6591 6.03902 19.0373C4.93699 17.3433 4.32958 15.5099 4.16631 13.8462C4.00219 12.1739 4.28984 10.7177 4.91986 9.74143C5.85423 8.29845 7.29789 7.5 8.58994 7.5C9.29246 7.5 9.85719 7.69923 10.4703 7.92036L10.4718 7.92088C10.4835 7.92506 10.4952 7.92925 10.5069 7.93344C11.0454 8.12587 11.6446 8.34 12.3299 8.34C12.9847 8.34 13.51 8.14034 13.9969 7.95524L14.0175 7.9474L14.0176 7.94742L14.0215 7.94586C14.6003 7.72025 15.1877 7.5 16.0499 7.5C17.0544 7.5 18.1519 7.98572 19.028 8.88069C16.0894 10.9935 16.6129 15.47 19.698 17.0429C19.3795 17.7406 19.1563 18.162 18.6818 18.8859ZM14.3147 21.6557C14.7211 21.8398 15.0962 22.0097 15.6699 22L14.2799 21.64C14.2916 21.6453 14.3031 21.6505 14.3147 21.6557Z" fill="white" stroke="white"/>
<path fill-rule="evenodd" clip-rule="evenodd" d="M15.8399 2C15.9999 3.1 15.5499 4.19001 14.9599 4.95001C14.3299 5.77001 13.2299 6.41 12.1699 6.37C11.9799 5.31 12.4699 4.21999 13.0699 3.48999C13.7399 2.68999 14.8699 2.07 15.8399 2Z" fill="white"/>
</svg>
