<svg width="24" height="25" viewBox="0 0 24 25" fill="none" xmlns="http://www.w3.org/2000/svg">
<g id="vuesax/linear/call-incoming">
<g id="call-incoming">
<g id="call-incoming_2">
<path id="Vector" d="M21.9699 18.8359C21.9699 19.1959 21.8899 19.5659 21.7199 19.9259C21.5499 20.2859 21.3299 20.6259 21.0399 20.9459C20.5499 21.4859 20.0099 21.8759 19.3999 22.1259C18.7999 22.3759 18.1499 22.5059 17.4499 22.5059C16.4299 22.5059 15.3399 22.2659 14.1899 21.7759C13.0399 21.2859 11.8899 20.6259 10.7499 19.7959C9.59988 18.9559 8.50988 18.0259 7.46988 16.9959C6.43988 15.9559 5.50988 14.8659 4.67988 13.7259C3.85988 12.5859 3.19988 11.4459 2.71988 10.3159C2.23988 9.17586 1.99988 8.08586 1.99988 7.04586C1.99988 6.36586 2.11988 5.71586 2.35988 5.11586C2.59988 4.50586 2.97988 3.94586 3.50988 3.44586C4.14988 2.81586 4.84988 2.50586 5.58988 2.50586C5.86988 2.50586 6.14988 2.56586 6.39988 2.68586C6.65988 2.80586 6.88988 2.98586 7.06988 3.24586L9.38988 6.51586C9.56988 6.76586 9.69988 6.99586 9.78988 7.21586C9.87988 7.42586 9.92988 7.63586 9.92988 7.82586C9.92988 8.06586 9.85988 8.30586 9.71988 8.53586C9.58988 8.76586 9.39988 9.00586 9.15988 9.24586L8.39988 10.0359C8.28988 10.1459 8.23988 10.2759 8.23988 10.4359C8.23988 10.5159 8.24988 10.5859 8.26988 10.6659C8.29988 10.7459 8.32988 10.8059 8.34988 10.8659C8.52988 11.1959 8.83988 11.6259 9.27988 12.1459C9.72988 12.6659 10.2099 13.1959 10.7299 13.7259C11.2699 14.2559 11.7899 14.7459 12.3199 15.1959C12.8399 15.6359 13.2699 15.9359 13.6099 16.1159C13.6599 16.1359 13.7199 16.1659 13.7899 16.1959C13.8699 16.2259 13.9499 16.2359 14.0399 16.2359C14.2099 16.2359 14.3399 16.1759 14.4499 16.0659L15.2099 15.3159C15.4599 15.0659 15.6999 14.8759 15.9299 14.7559C16.1599 14.6159 16.3899 14.5459 16.6399 14.5459C16.8299 14.5459 17.0299 14.5859 17.2499 14.6759C17.4699 14.7659 17.6999 14.8959 17.9499 15.0659L21.2599 17.4159C21.5199 17.5959 21.6999 17.8059 21.8099 18.0559C21.9099 18.3059 21.9699 18.5559 21.9699 18.8359Z" stroke="white" stroke-width="2.25" stroke-miterlimit="10"/>
<path id="Vector_2" d="M16.2001 8.30586H21.0001M16.2001 8.30586V3.50586V8.30586Z" stroke="white" stroke-width="2.25" stroke-linecap="round" stroke-linejoin="round"/>
</g>
</g>
</g>
</svg>
