<svg width="51" height="51" viewBox="0 0 51 51" fill="none" xmlns="http://www.w3.org/2000/svg">
<g filter="url(#filter0_i_504_13757)">
<path d="M44.6667 8.00537H42.75C42.8933 8.6912 43.2858 10.5845 43.4325 11.3387H44.6667V29.672H23V36.3387H44.6667C46.5083 36.3387 48 34.847 48 33.0054V11.3387C48 9.49704 46.5083 8.00537 44.6667 8.00537ZM27.1667 8.00537H18V11.3387H27.1667V8.00537Z" fill="#FF842C"/>
</g>
<path d="M44.8167 11.3387V11.1887H44.6667H43.556C43.4075 10.4356 43.0907 8.90499 42.9345 8.15537H44.6667C46.4255 8.15537 47.85 9.57988 47.85 11.3387V33.0054C47.85 34.7642 46.4255 36.1887 44.6667 36.1887H23.15V29.822H44.6667H44.8167V29.672V11.3387ZM18.15 11.1887V8.15537H27.0167V11.1887H18.15Z" stroke="#8C4918" stroke-width="0.3"/>
<g filter="url(#filter1_i_504_13757)">
<path d="M42.1667 13.8389C42.1667 15.5055 41.5492 17.3389 41.3333 18.0055H36.3333C36.2 17.3872 35.5 15.5055 35.5 13.8389C35.5 12.1722 37.105 5.63887 37.2 5.1722C37.355 4.41303 38.025 3.83887 38.8333 3.83887C39.6417 3.83887 40.3092 4.41303 40.4667 5.1722C40.5733 5.68553 42.1667 12.1722 42.1667 13.8389Z" fill="#FF842C"/>
</g>
<path d="M40.3198 5.20272L40.3198 5.20267C40.1763 4.51081 39.5682 3.98887 38.8333 3.98887C38.0981 3.98887 37.4881 4.51106 37.347 5.20212L40.3198 5.20272ZM40.3198 5.20272C40.3363 5.28219 40.3899 5.51104 40.4684 5.84596C40.6397 6.57704 40.9294 7.81351 41.2101 9.10489C41.4157 10.0512 41.6178 11.0322 41.7684 11.88C41.9196 12.7318 42.0167 13.4373 42.0167 13.8389C42.0167 15.3995 41.4647 17.1156 41.2243 17.8555M40.3198 5.20272L41.2243 17.8555M41.2243 17.8555H36.4518C36.416 17.715 36.3641 17.537 36.3049 17.334L36.2909 17.286C36.2065 16.9967 36.1072 16.6537 36.0121 16.2785C35.8214 15.5265 35.65 14.6536 35.65 13.8389C35.65 13.4374 35.7477 12.729 35.8999 11.8735C36.0514 11.022 36.2546 10.0366 36.461 9.0874C36.7399 7.80466 37.0266 6.58003 37.1968 5.85315C37.2774 5.50919 37.3318 5.27669 37.347 5.20221L41.2243 17.8555Z" stroke="#8C4918" stroke-width="0.3"/>
<g filter="url(#filter2_i_504_13757)">
<path d="M36.9992 26.3385C37.1058 25.956 37.1667 25.551 37.1667 25.1535C37.1667 24.6719 37.165 24.1269 36.9083 23.7327C36.54 23.166 36.3333 22.8102 36.3333 22.1719C36.3333 20.7885 37.45 19.6719 38.8333 19.6719C40.2167 19.6719 41.3333 20.7885 41.3333 22.1719C41.3333 24.5477 39.1658 25.946 36.9992 26.3385Z" fill="#FF842C"/>
</g>
<path d="M39.8812 24.885C39.15 25.5109 38.1871 25.9337 37.2026 26.1454C37.2758 25.8214 37.3167 25.4855 37.3167 25.1535C37.3167 24.9142 37.3165 24.6477 37.2825 24.3906C37.2484 24.1332 37.1793 23.8739 37.034 23.6509C36.6684 23.0884 36.4833 22.764 36.4833 22.1719C36.4833 20.8714 37.5329 19.8219 38.8333 19.8219C40.1338 19.8219 41.1833 20.8714 41.1833 22.1719C41.1833 23.3086 40.6666 24.2127 39.8812 24.885Z" stroke="#8C4918" stroke-width="0.3"/>
<g filter="url(#filter3_i_504_13757)">
<path d="M28.8333 4.67188H33.8333V20.5052H28.8333V4.67188Z" fill="#FF842C"/>
</g>
<path d="M28.9833 4.82188H33.6833V20.3552H28.9833V4.82188Z" stroke="#8C4918" stroke-width="0.3"/>
<g filter="url(#filter4_i_504_13757)">
<path d="M31.3333 26.3385L28.8333 22.1719H33.8333L31.3333 26.3385Z" fill="#FF842C"/>
</g>
<path d="M33.5684 22.3219L31.3333 26.047L29.0983 22.3219H33.5684Z" stroke="#8C4918" stroke-width="0.3"/>
<g filter="url(#filter5_i_504_13757)">
<path d="M9.66666 13.8389V16.3389H12.5833C13.2733 16.3389 13.8333 16.8989 13.8333 17.5889C13.8333 18.2789 13.2733 18.8389 12.5833 18.8389H9.66666V21.3389H12.5833C13.2733 21.3389 13.8333 21.8989 13.8333 22.5889C13.8333 23.2789 13.2733 23.8389 12.5833 23.8389H9.66666V26.3389H12.5833C13.2733 26.3389 13.8333 26.8989 13.8333 27.5889C13.8333 28.2789 13.2733 28.8389 12.5833 28.8389H9.66666V31.3389H12.5833C13.2733 31.3389 13.8333 31.8989 13.8333 32.5889C13.8333 33.2789 13.2733 33.8389 12.5833 33.8389H9.66666V36.3389H17.1667V13.8389H9.66666Z" fill="#FF842C"/>
</g>
<path d="M12.5833 16.1889H9.81666V13.9889H17.0167V36.1889H9.81666V33.9889H12.5833C13.3562 33.9889 13.9833 33.3617 13.9833 32.5889C13.9833 31.816 13.3562 31.1889 12.5833 31.1889H9.81666V28.9889H12.5833C13.3562 28.9889 13.9833 28.3617 13.9833 27.5889C13.9833 26.816 13.3562 26.1889 12.5833 26.1889H9.81666V23.9889H12.5833C13.3562 23.9889 13.9833 23.3617 13.9833 22.5889C13.9833 21.816 13.3562 21.1889 12.5833 21.1889H9.81666V18.9889H12.5833C13.3562 18.9889 13.9833 18.3617 13.9833 17.5889C13.9833 16.816 13.3562 16.1889 12.5833 16.1889Z" stroke="#8C4918" stroke-width="0.3"/>
<g filter="url(#filter6_i_504_13757)">
<path d="M18.8333 21.3389V40.5055H5.5V23.8389H8V21.3389H5.5C4.12 21.3389 3 22.458 3 23.8389V44.6722C3 46.053 4.12 47.1722 5.5 47.1722H18.8333C20.2133 47.1722 21.3333 46.053 21.3333 44.6722V23.8389C21.3333 22.458 20.2133 21.3389 18.8333 21.3389ZM12.1667 45.5055C11.2467 45.5055 10.5 44.7589 10.5 43.8389C10.5 42.9189 11.2467 42.1722 12.1667 42.1722C13.0867 42.1722 13.8333 42.9189 13.8333 43.8389C13.8333 44.7589 13.0867 45.5055 12.1667 45.5055Z" fill="#FF842C"/>
</g>
<path d="M18.8333 40.6555H18.9833V40.5055V21.4936C20.2107 21.571 21.1833 22.5913 21.1833 23.8389V44.6722C21.1833 45.9702 20.1305 47.0222 18.8333 47.0222H5.5C4.20281 47.0222 3.15 45.9702 3.15 44.6722V23.8389C3.15 22.5409 4.20281 21.4889 5.5 21.4889H7.85V23.6889H5.5H5.35V23.8389V40.5055V40.6555H5.5H18.8333ZM10.35 43.8389C10.35 44.8417 11.1638 45.6555 12.1667 45.6555C13.1695 45.6555 13.9833 44.8417 13.9833 43.8389C13.9833 42.836 13.1695 42.0222 12.1667 42.0222C11.1638 42.0222 10.35 42.836 10.35 43.8389Z" stroke="#8C4918" stroke-width="0.3"/>
<g filter="url(#filter7_i_504_13757)">
<path d="M37.0775 41.3387H36.4375C35.4592 41.3387 34.6667 40.5462 34.6667 39.5679V38.0054H27.1667V39.5679C27.1667 40.5462 26.3742 41.3387 25.3958 41.3387H24.7558C23.8608 41.3387 23 42.0029 23 43.0054C23 43.9254 23.7467 44.672 24.6667 44.672H37.1667C38.0867 44.672 38.8333 43.9254 38.8333 43.0054C38.8333 42.0054 37.9758 41.3387 37.0775 41.3387Z" fill="#FF842C"/>
</g>
<path d="M36.4375 41.4887H37.0775C37.9094 41.4887 38.6833 42.1037 38.6833 43.0054C38.6833 43.8425 38.0038 44.522 37.1667 44.522H24.6667C23.8295 44.522 23.15 43.8425 23.15 43.0054C23.15 42.1016 23.9269 41.4887 24.7558 41.4887H25.3958C26.457 41.4887 27.3167 40.629 27.3167 39.5679V38.1554H34.5167V39.5679C34.5167 40.629 35.3763 41.4887 36.4375 41.4887Z" stroke="#8C4918" stroke-width="0.3"/>
<defs>
<filter id="filter0_i_504_13757" x="18" y="8.00537" width="30" height="28.3335" filterUnits="userSpaceOnUse" color-interpolation-filters="sRGB">
<feFlood flood-opacity="0" result="BackgroundImageFix"/>
<feBlend mode="normal" in="SourceGraphic" in2="BackgroundImageFix" result="shape"/>
<feColorMatrix in="SourceAlpha" type="matrix" values="0 0 0 0 0 0 0 0 0 0 0 0 0 0 0 0 0 0 127 0" result="hardAlpha"/>
<feOffset dx="1" dy="-1"/>
<feComposite in2="hardAlpha" operator="arithmetic" k2="-1" k3="1"/>
<feColorMatrix type="matrix" values="0 0 0 0 0 0 0 0 0 0 0 0 0 0 0 0 0 0 0.2 0"/>
<feBlend mode="normal" in2="shape" result="effect1_innerShadow_504_13757"/>
</filter>
<filter id="filter1_i_504_13757" x="35.5" y="3.83887" width="6.66666" height="14.1665" filterUnits="userSpaceOnUse" color-interpolation-filters="sRGB">
<feFlood flood-opacity="0" result="BackgroundImageFix"/>
<feBlend mode="normal" in="SourceGraphic" in2="BackgroundImageFix" result="shape"/>
<feColorMatrix in="SourceAlpha" type="matrix" values="0 0 0 0 0 0 0 0 0 0 0 0 0 0 0 0 0 0 127 0" result="hardAlpha"/>
<feOffset dx="1" dy="-1"/>
<feComposite in2="hardAlpha" operator="arithmetic" k2="-1" k3="1"/>
<feColorMatrix type="matrix" values="0 0 0 0 0 0 0 0 0 0 0 0 0 0 0 0 0 0 0.2 0"/>
<feBlend mode="normal" in2="shape" result="effect1_innerShadow_504_13757"/>
</filter>
<filter id="filter2_i_504_13757" x="36.3333" y="19.6719" width="5" height="6.6665" filterUnits="userSpaceOnUse" color-interpolation-filters="sRGB">
<feFlood flood-opacity="0" result="BackgroundImageFix"/>
<feBlend mode="normal" in="SourceGraphic" in2="BackgroundImageFix" result="shape"/>
<feColorMatrix in="SourceAlpha" type="matrix" values="0 0 0 0 0 0 0 0 0 0 0 0 0 0 0 0 0 0 127 0" result="hardAlpha"/>
<feOffset dx="1" dy="-1"/>
<feComposite in2="hardAlpha" operator="arithmetic" k2="-1" k3="1"/>
<feColorMatrix type="matrix" values="0 0 0 0 0 0 0 0 0 0 0 0 0 0 0 0 0 0 0.2 0"/>
<feBlend mode="normal" in2="shape" result="effect1_innerShadow_504_13757"/>
</filter>
<filter id="filter3_i_504_13757" x="28.8333" y="4.67188" width="5" height="15.8335" filterUnits="userSpaceOnUse" color-interpolation-filters="sRGB">
<feFlood flood-opacity="0" result="BackgroundImageFix"/>
<feBlend mode="normal" in="SourceGraphic" in2="BackgroundImageFix" result="shape"/>
<feColorMatrix in="SourceAlpha" type="matrix" values="0 0 0 0 0 0 0 0 0 0 0 0 0 0 0 0 0 0 127 0" result="hardAlpha"/>
<feOffset dx="1" dy="-1"/>
<feComposite in2="hardAlpha" operator="arithmetic" k2="-1" k3="1"/>
<feColorMatrix type="matrix" values="0 0 0 0 0 0 0 0 0 0 0 0 0 0 0 0 0 0 0.2 0"/>
<feBlend mode="normal" in2="shape" result="effect1_innerShadow_504_13757"/>
</filter>
<filter id="filter4_i_504_13757" x="28.8333" y="22.1719" width="5" height="4.1665" filterUnits="userSpaceOnUse" color-interpolation-filters="sRGB">
<feFlood flood-opacity="0" result="BackgroundImageFix"/>
<feBlend mode="normal" in="SourceGraphic" in2="BackgroundImageFix" result="shape"/>
<feColorMatrix in="SourceAlpha" type="matrix" values="0 0 0 0 0 0 0 0 0 0 0 0 0 0 0 0 0 0 127 0" result="hardAlpha"/>
<feOffset dx="1" dy="-1"/>
<feComposite in2="hardAlpha" operator="arithmetic" k2="-1" k3="1"/>
<feColorMatrix type="matrix" values="0 0 0 0 0 0 0 0 0 0 0 0 0 0 0 0 0 0 0.2 0"/>
<feBlend mode="normal" in2="shape" result="effect1_innerShadow_504_13757"/>
</filter>
<filter id="filter5_i_504_13757" x="9.66666" y="13.8389" width="7.5" height="22.5" filterUnits="userSpaceOnUse" color-interpolation-filters="sRGB">
<feFlood flood-opacity="0" result="BackgroundImageFix"/>
<feBlend mode="normal" in="SourceGraphic" in2="BackgroundImageFix" result="shape"/>
<feColorMatrix in="SourceAlpha" type="matrix" values="0 0 0 0 0 0 0 0 0 0 0 0 0 0 0 0 0 0 127 0" result="hardAlpha"/>
<feOffset dx="1" dy="-1"/>
<feComposite in2="hardAlpha" operator="arithmetic" k2="-1" k3="1"/>
<feColorMatrix type="matrix" values="0 0 0 0 0 0 0 0 0 0 0 0 0 0 0 0 0 0 0.2 0"/>
<feBlend mode="normal" in2="shape" result="effect1_innerShadow_504_13757"/>
</filter>
<filter id="filter6_i_504_13757" x="3" y="21.3389" width="18.3333" height="25.8335" filterUnits="userSpaceOnUse" color-interpolation-filters="sRGB">
<feFlood flood-opacity="0" result="BackgroundImageFix"/>
<feBlend mode="normal" in="SourceGraphic" in2="BackgroundImageFix" result="shape"/>
<feColorMatrix in="SourceAlpha" type="matrix" values="0 0 0 0 0 0 0 0 0 0 0 0 0 0 0 0 0 0 127 0" result="hardAlpha"/>
<feOffset dx="1" dy="-1"/>
<feComposite in2="hardAlpha" operator="arithmetic" k2="-1" k3="1"/>
<feColorMatrix type="matrix" values="0 0 0 0 0 0 0 0 0 0 0 0 0 0 0 0 0 0 0.2 0"/>
<feBlend mode="normal" in2="shape" result="effect1_innerShadow_504_13757"/>
</filter>
<filter id="filter7_i_504_13757" x="23" y="38.0054" width="15.8333" height="6.6665" filterUnits="userSpaceOnUse" color-interpolation-filters="sRGB">
<feFlood flood-opacity="0" result="BackgroundImageFix"/>
<feBlend mode="normal" in="SourceGraphic" in2="BackgroundImageFix" result="shape"/>
<feColorMatrix in="SourceAlpha" type="matrix" values="0 0 0 0 0 0 0 0 0 0 0 0 0 0 0 0 0 0 127 0" result="hardAlpha"/>
<feOffset dx="1" dy="-1"/>
<feComposite in2="hardAlpha" operator="arithmetic" k2="-1" k3="1"/>
<feColorMatrix type="matrix" values="0 0 0 0 0 0 0 0 0 0 0 0 0 0 0 0 0 0 0.2 0"/>
<feBlend mode="normal" in2="shape" result="effect1_innerShadow_504_13757"/>
</filter>
</defs>
</svg>
