<svg width="55" height="55" viewBox="0 0 55 55" fill="none" xmlns="http://www.w3.org/2000/svg">
<path d="M27.5 0.527344L27.5053 27.6274L37.8811 2.59224L27.5151 27.6316L46.6815 8.4726L27.5226 27.639L52.5619 17.2731L27.5267 27.6488L54.6268 27.6541L27.5267 27.6593L52.5619 38.0351L27.5226 27.6692L46.6815 46.8356L27.5151 27.6766L37.8811 52.7159L27.5053 27.6808L27.5 54.7808L27.4948 27.6808L17.119 52.7159L27.4849 27.6766L8.31854 46.8356L27.4775 27.6692L2.43818 38.0351L27.4734 27.6593L0.373291 27.6541L27.4734 27.6488L2.43818 17.2731L27.4775 27.639L8.31854 8.4726L27.4849 27.6316L17.119 2.59224L27.4948 27.6274L27.5 0.527344Z" fill="#FFC69E" stroke="#FFC69E" stroke-width="2.71268"/>
</svg>
