<svg width="24" height="24" viewBox="0 0 24 24" fill="none" xmlns="http://www.w3.org/2000/svg">
<path d="M21.1787 12.5017L21.1764 12.5028L18.3964 13.8928L18.3964 13.8927L18.3943 13.8938C18.392 13.8928 18.3888 13.891 18.385 13.8879L16.5236 12.0265C16.5231 12.026 16.5226 12.0255 16.5222 12.025C16.5226 12.0246 16.5231 12.0241 16.5236 12.0236L16.5236 12.0236L18.4216 10.1255C18.4219 10.1254 18.4222 10.1253 18.4225 10.1253L18.4258 10.1269L21.1758 11.5069L21.1757 11.507L21.1833 11.5106C21.5907 11.7066 21.602 12.2927 21.1787 12.5017L21.1787 12.5017Z" fill="white" stroke="white"/>
<path d="M16.3 8.48996C16.61 8.63996 16.67 9.04998 16.43 9.28998L14.76 10.96L14.05 11.67C13.85 11.87 13.54 11.87 13.34 11.67L6.19997 4.52997C5.79997 4.12997 6.26997 3.47998 6.77997 3.72998L16.3 8.48996Z" fill="white"/>
<path d="M2 20.15V3.48002C2 3.04002 2.53 2.81001 2.85 3.12001L11.62 11.63C11.83 11.83 11.82 12.16 11.61 12.36L2.84 20.52C2.52 20.82 2 20.59 2 20.15Z" fill="white"/>
<path d="M16.2699 15.52L6.87995 20.22C6.36995 20.47 5.89995 19.82 6.29995 19.42L13.3499 12.37C13.5499 12.17 13.8599 12.17 14.0599 12.37L16.4099 14.72C16.6399 14.96 16.5699 15.37 16.2699 15.52Z" fill="white"/>
</svg>
