<svg width="50" height="51" viewBox="0 0 50 51" fill="none" xmlns="http://www.w3.org/2000/svg">
<g id="Graphic design_3">
<g id="Vector">
<g filter="url(#filter0_i_504_13766)">
<path d="M25.8333 43.8389H24.2241L23.2241 41.3389H16.8333L15.8333 43.8389H14.1666C12.7858 43.8389 11.6666 44.958 11.6666 46.3389C11.6666 47.2589 12.4133 48.0055 13.3333 48.0055H26.6666C27.5866 48.0055 28.3333 47.2589 28.3333 46.3389C28.3333 44.958 27.2141 43.8389 25.8333 43.8389Z" fill="#FF842C"/>
</g>
<path d="M24.0849 43.8946L24.1226 43.9889H24.2241H25.8333C27.1313 43.9889 28.1833 45.0409 28.1833 46.3389C28.1833 47.176 27.5038 47.8555 26.6666 47.8555H13.3333C12.4961 47.8555 11.8166 47.176 11.8166 46.3389C11.8166 45.0409 12.8686 43.9889 14.1666 43.9889H15.8333H15.9348L15.9726 43.8946L16.9348 41.4889H23.1226L24.0849 43.8946Z" stroke="#8C4918" stroke-width="0.3"/>
</g>
<g id="Vector_2">
<g filter="url(#filter1_i_504_13766)">
<path d="M31.7567 38.5429C32.0208 39.3254 32.9825 39.807 34.025 39.6387C35.1608 39.4554 35.9633 38.5704 35.8167 37.6612C35.7933 37.5154 35.7467 37.3787 35.6808 37.2512L33.1475 32.2379C32.825 31.617 32.1308 31.2429 31.4025 31.3604C30.4942 31.507 29.8758 32.362 30.0225 33.2712C30.0375 33.3645 30.06 33.4545 30.0892 33.5412L31.7567 38.5429Z" fill="#FF842C"/>
</g>
<path d="M34.0011 39.4906L34.0011 39.4906C35.0878 39.3152 35.7974 38.4833 35.6686 37.6851L35.6686 37.6849C35.6479 37.5557 35.6065 37.4342 35.5476 37.32L35.547 37.3189L35.547 37.3189L33.014 32.3063C32.7202 31.7415 32.0886 31.4016 31.4264 31.5084L34.0011 39.4906ZM34.0011 39.4906C33.0071 39.6511 32.1327 39.1873 31.8989 38.4951L31.899 38.4954L31.7567 38.5429M34.0011 39.4906L34.025 39.6387M31.7567 38.5429C32.0208 39.3254 32.9825 39.807 34.025 39.6387M31.7567 38.5429L31.8988 38.4949M31.7567 38.5429L31.8988 38.4949M34.025 39.6387C35.1608 39.4554 35.9633 38.5704 35.8167 37.6612L34.025 39.6387ZM31.8988 38.4949L30.2315 33.4938L30.2313 33.4934C30.2048 33.4144 30.1843 33.3324 30.1706 33.2474L30.1706 33.2473C30.0371 32.42 30.5998 31.6419 31.4264 31.5085L31.8988 38.4949Z" stroke="#8C4918" stroke-width="0.3"/>
</g>
<g id="Vector_3">
<g filter="url(#filter2_i_504_13766)">
<path d="M25.0866 19.2089C24.8825 18.7964 25.0516 18.2964 25.4641 18.0922C25.8766 17.888 26.3758 18.0572 26.58 18.4697L27.7875 20.908L33.6425 18.0097L32.5858 15.8755C32.3816 15.463 32.5508 14.963 32.9633 14.7589C33.3758 14.5547 33.875 14.7239 34.0791 15.1364L35.1358 17.2705L39.0208 15.348L38.2708 13.8239C37.7641 12.7922 37.5 11.6589 37.5 10.5097V8.83887C35 8.99803 35.2633 10.5055 33.5966 10.5055C32.7633 10.5055 31.8608 9.6497 31.8608 9.6497C31.8608 9.6497 30.7975 11.3389 29.1666 11.3389C27.5175 11.3389 25 9.96303 25 9.96303C25 9.96303 25 13.8389 23.22 13.8389C22.0083 13.8389 21.4783 13.0039 20.3683 13.0055C19.4233 12.9997 18.8858 13.8072 18.4825 14.318C18.3833 14.4439 18.3316 14.5964 18.3333 14.7497C18.3341 14.8447 18.355 14.9405 18.3991 15.0297L22.585 23.483L26.2933 21.6472L25.0866 19.2089Z" fill="#FF842C"/>
</g>
<path d="M26.0923 21.5793L22.6528 23.2821L18.5335 14.9631L18.5335 14.9631C18.5001 14.8956 18.4839 14.8223 18.4833 14.7484L18.4833 14.7481C18.482 14.6296 18.5219 14.5103 18.6003 14.4109C18.6359 14.3658 18.6719 14.3192 18.7087 14.2717C18.8866 14.042 19.0812 13.7908 19.321 13.5809C19.606 13.3316 19.9426 13.1529 20.3674 13.1555L20.3685 13.1555C20.8764 13.1548 21.253 13.3406 21.6716 13.5472L21.6896 13.5561C22.1134 13.7652 22.5763 13.9889 23.22 13.9889C23.7296 13.9889 24.1042 13.7079 24.3725 13.3184C24.6385 12.9323 24.8107 12.4265 24.9237 11.9345C25.0371 11.4403 25.0936 10.9478 25.1217 10.5801C25.1329 10.4343 25.1396 10.3076 25.1437 10.2077C25.2029 10.2379 25.273 10.2733 25.3528 10.3126C25.6168 10.4426 25.9861 10.6161 26.4078 10.7897C27.2449 11.1343 28.3102 11.4889 29.1666 11.4889C30.0348 11.4889 30.7429 11.0398 31.2256 10.6058C31.4682 10.3877 31.6578 10.1699 31.7868 10.0066C31.8263 9.95672 31.8602 9.91178 31.8883 9.87334C31.8982 9.88166 31.9087 9.89033 31.9196 9.89931C32.0204 9.98216 32.1639 10.0927 32.3346 10.2035C32.6704 10.4213 33.135 10.6555 33.5966 10.6555C34.0389 10.6555 34.3609 10.5548 34.6332 10.3974C34.8551 10.269 35.043 10.1026 35.2274 9.93923C35.2631 9.90758 35.2987 9.87606 35.3344 9.84494C35.5581 9.64987 35.7991 9.45736 36.1329 9.3025C36.4366 9.16159 36.8233 9.04919 37.35 9.00092V10.5097C37.35 11.6819 37.6194 12.8378 38.1362 13.89L38.1362 13.8901L38.8201 15.28L35.2037 17.0696L34.2136 15.0698C33.9727 14.5832 33.3836 14.3834 32.8968 14.6244C32.4101 14.8653 32.2104 15.4553 32.4514 15.9421L32.4514 15.9421L33.4415 17.9418L27.8553 20.7071L26.7144 18.4032C26.7144 18.4032 26.7144 18.4031 26.7144 18.4031C26.4735 17.9166 25.8845 17.7168 25.3976 17.9578C24.9109 18.1986 24.7112 18.7886 24.9522 19.2754C24.9522 19.2754 24.9522 19.2754 24.9522 19.2754L26.0923 21.5793Z" stroke="#8C4918" stroke-width="0.3"/>
</g>
<g id="Vector_4">
<g filter="url(#filter3_i_504_13766)">
<path d="M46.0158 30.3278C45.5258 29.7195 44.9325 29.2011 44.2633 28.7978L39.1925 25.7428C38.85 25.537 38.4283 25.4503 37.9833 25.5403C37.4066 25.6578 36.9366 26.1153 36.7508 26.6736C36.4908 27.4578 36.8733 28.0111 37.3066 28.4786C37.8758 29.092 38.7425 29.7053 39.3383 30.0936C39.7233 30.3445 40.0616 30.662 40.3 31.0545C40.7983 31.8753 41.455 32.5745 42.2558 33.2486C42.4066 33.4003 42.5 33.6086 42.5 33.8386C42.5 34.2986 42.1266 34.672 41.6666 34.672C41.5916 34.672 41.5216 34.6553 41.4525 34.637C41.1425 35.5386 40.5008 36.3261 39.5816 36.782C39.0475 37.0453 38.4816 37.1711 37.9233 37.1711C37.7458 37.1711 37.5708 37.1536 37.3966 37.1278C37.4191 37.2161 37.4466 37.302 37.4608 37.3928C37.6258 38.4153 37.235 39.4053 36.5083 40.1428C37.3375 40.3311 38.4908 40.5053 40 40.5053C42.5 40.5053 45.8333 38.8386 47.5 38.0053V32.172L46.0158 30.3278Z" fill="#FF842C"/>
</g>
<path d="M40.4282 30.9766L40.4282 30.9766C40.9155 31.7793 41.5597 32.4665 42.3524 33.1339L42.3626 33.1424L42.3622 33.1428C42.5396 33.3213 42.65 33.5671 42.65 33.8386C42.65 34.3815 42.2095 34.822 41.6666 34.822C41.6253 34.822 41.5858 34.818 41.5485 34.812C41.2114 35.6955 40.5619 36.4633 39.6483 36.9163L39.648 36.9165C39.0929 37.1901 38.5043 37.3211 37.9233 37.3211C37.8129 37.3211 37.7041 37.3147 37.5967 37.304C37.6014 37.3257 37.6055 37.3475 37.6089 37.3693M40.4282 30.9766L37.4608 37.3928M40.4282 30.9766C40.1757 30.5609 39.8196 30.2282 39.4202 29.968L40.4282 30.9766ZM37.6089 37.3693C37.609 37.3694 37.609 37.3695 37.609 37.3697L37.4608 37.3928M37.6089 37.3693C37.6089 37.3691 37.6089 37.369 37.6089 37.3689L37.4608 37.3928M37.6089 37.3693C37.7682 38.3569 37.4341 39.3099 36.7961 40.0516M37.4608 37.3928C37.6165 38.3577 37.2772 39.2937 36.6279 40.0158C36.6826 40.0278 36.7387 40.0398 36.7961 40.0516M36.7961 40.0516C36.7585 40.0953 36.7198 40.1383 36.6801 40.1806C36.6214 40.1681 36.5641 40.1555 36.5083 40.1428L47.5 38.0053M36.7961 40.0516C37.5917 40.2152 38.6519 40.3553 40 40.3553C41.2218 40.3553 42.6592 39.9468 44.0086 39.4278C45.3112 38.9268 46.5179 38.3284 47.35 37.9126M47.35 37.9126V38.0053H47.5M47.35 37.9126C47.378 37.8985 47.4057 37.8847 47.4329 37.8711L47.5 38.0053M47.35 37.9126V32.2248M47.5 38.0053V32.172M47.35 32.2248L47.3831 32.266L47.5 32.172M47.35 32.2248L45.899 30.4219M47.35 32.2248V32.172H47.5M47.5 32.172L45.899 30.4219M45.899 30.4219C45.42 29.8272 44.84 29.3205 44.1859 28.9263L39.1152 25.8714C39.1152 25.8713 39.1151 25.8713 39.1151 25.8713C38.8039 25.6843 38.4204 25.605 38.0131 25.6873C37.4949 25.7929 37.064 26.2077 36.8931 26.7209C36.6608 27.4219 36.9909 27.9173 37.4166 28.3766L45.899 30.4219ZM45.899 30.4219L46.0158 30.3278L45.8989 30.4218L45.899 30.4219ZM37.4162 37.2012C37.4238 37.2292 37.4315 37.2571 37.4385 37.2852L37.5575 37.149C37.5038 37.1429 37.4502 37.1357 37.3966 37.1278C37.4029 37.1524 37.4096 37.1768 37.4162 37.2012ZM39.4202 29.9679C38.8257 29.5805 37.9724 28.9756 37.4166 28.3766L39.4202 29.9679Z" stroke="#8C4918" stroke-width="0.3"/>
</g>
<g id="Vector_5">
<g filter="url(#filter4_i_504_13766)">
<path d="M38.875 31.9194C38.7833 31.7678 38.6325 31.6244 38.4283 31.4903C37.4158 30.8286 36.6274 30.1969 36.0841 29.6111C35.3633 28.8344 35.0016 28.0169 35 27.1719C34.9991 26.8353 35.055 26.4944 35.1691 26.1494C35.5508 25.0003 36.5024 24.1419 37.6516 23.9086C37.8783 23.8619 38.1066 23.8386 38.3333 23.8386C38.5766 23.8378 38.8258 23.8786 39.0658 23.9319C40.1858 22.9644 40.8333 21.5611 40.8333 20.1061C40.8333 19.3669 40.6341 18.6178 40.2841 17.9103L39.7583 16.8428L23.325 24.9769L23.8533 26.0436C24.7258 27.8044 26.4933 28.8286 28.3333 28.8386C29.09 28.8428 29.8591 28.6744 30.5833 28.3161L32.5758 27.3303L36.0499 34.3461C36.5608 35.3769 37.81 35.7994 38.8416 35.2886C39.5858 34.9203 40.0058 34.1669 39.9933 33.3886C39.5575 32.9144 39.1858 32.4328 38.875 31.9194Z" fill="#FF842C"/>
</g>
<path d="M38.7466 31.9971L38.7466 31.997C38.6704 31.8709 38.5389 31.7424 38.3459 31.6156L38.4283 31.4903M38.7466 31.9971L35.1691 26.1494C35.055 26.4944 34.9991 26.8353 35 27.1719L34.85 27.1722C34.85 27.1723 34.85 27.1723 34.85 27.1723C34.8517 28.0637 35.2343 28.9159 35.9742 29.7131C36.5289 30.3113 37.3282 30.9506 38.3462 31.6158L38.4283 31.4903M38.7466 31.9971C39.054 32.5047 39.4189 32.9806 39.8434 33.447C39.8346 34.1503 39.4469 34.8217 38.7751 35.1542L38.7751 35.1542C37.8177 35.6282 36.6585 35.2362 36.1844 34.2795C36.1844 34.2795 36.1844 34.2795 36.1844 34.2795L32.7102 27.2637L32.6437 27.1293L32.5093 27.1958L30.5168 28.1817L30.5833 28.3161L30.5168 28.1817C29.8139 28.5295 29.0678 28.6927 28.3341 28.6886C26.5486 28.6789 24.834 27.6851 23.9877 25.977C23.9877 25.977 23.9877 25.977 23.9877 25.977L23.526 25.0448L39.6901 17.0439M38.7466 31.9971L39.6901 17.0439M38.4283 31.4903C37.4158 30.8286 36.6274 30.1969 36.0841 29.6111L39.9933 33.3886C39.5575 32.9144 39.1858 32.4328 38.875 31.9194C38.7833 31.7678 38.6325 31.6244 38.4283 31.4903ZM39.6901 17.0439L40.1496 17.9766L40.1497 17.9768C40.4913 18.6673 40.6833 19.3938 40.6833 20.1061C40.6833 21.4924 40.0768 22.8319 39.0236 23.7694C38.8009 23.7228 38.5661 23.6878 38.333 23.6886C38.3331 23.6886 38.3332 23.6886 38.3333 23.6886L39.6901 17.0439Z" stroke="#8C4918" stroke-width="0.3"/>
</g>
<g id="Vector_6">
<g filter="url(#filter5_i_504_13766)">
<path d="M15.8333 25.5055C15.8333 26.8864 14.9008 28.0055 13.75 28.0055C12.5991 28.0055 11.6666 26.8864 11.6666 25.5055C11.6666 18.8389 17.5 16.3389 17.5 16.3389C17.5 16.3389 15.8333 19.6722 15.8333 25.5055Z" fill="#FF842C"/>
</g>
<path d="M17.1956 16.6566C17.1664 16.7271 17.1343 16.8072 17.0997 16.8967C16.9416 17.3051 16.7315 17.9092 16.5217 18.6961C16.102 20.2698 15.6833 22.5745 15.6833 25.5055C15.6833 26.8303 14.7935 27.8555 13.75 27.8555C12.7064 27.8555 11.8166 26.8303 11.8166 25.5055C11.8166 22.221 13.2521 19.9655 14.6894 18.5283C15.4086 17.809 16.1281 17.2951 16.6675 16.9612C16.8733 16.8338 17.0527 16.7327 17.1956 16.6566Z" stroke="#8C4918" stroke-width="0.3"/>
</g>
<g id="Vector_7">
<g filter="url(#filter6_i_504_13766)">
<path d="M22.5 12.1719C22.5 8.00521 17.6742 7.17188 15.8334 7.17188C13.9925 7.17188 10.8334 8.00521 10.8334 11.3385C10.8334 13.1794 12.3259 14.6719 14.1667 14.6719C16.795 14.6719 17.2067 11.3385 20.3842 11.3385C21.3025 11.3385 22.0084 11.9294 22.5 12.1719Z" fill="#FF842C"/>
</g>
<path d="M15.8334 7.32188C16.7382 7.32188 18.3797 7.52775 19.7891 8.24313C21.1315 8.92448 22.2492 10.0582 22.3436 11.915C22.2959 11.8871 22.2459 11.8572 22.1933 11.8257L22.1681 11.8106C22.0185 11.7211 21.8514 11.622 21.6697 11.5304C21.3062 11.3469 20.876 11.1885 20.3842 11.1885C18.7302 11.1885 17.7947 12.0632 16.9632 12.8994C16.9272 12.9356 16.8914 12.9717 16.8558 13.0076C16.0615 13.8088 15.3545 14.5219 14.1667 14.5219C12.4087 14.5219 10.9834 13.0965 10.9834 11.3385C10.9834 9.7298 11.7409 8.73397 12.7214 8.1331C13.7105 7.527 14.9307 7.32188 15.8334 7.32188Z" stroke="#8C4918" stroke-width="0.3"/>
</g>
<g id="Vector_8">
<g filter="url(#filter7_i_504_13766)">
<path d="M29.1667 9.6722C26.6667 7.1722 22.5 8.83887 22.5 5.9222C22.5 4.77137 23.4325 3.83887 24.5833 3.83887C28.3333 3.83887 29.1667 8.52137 29.1667 9.6722Z" fill="#FF842C"/>
</g>
<path d="M28.1479 6.39266C28.698 7.46068 28.9326 8.62701 28.9971 9.31185C27.8668 8.35015 26.4721 8.09276 25.2957 7.87565C25.1691 7.85229 25.0451 7.8294 24.9242 7.80615C24.2437 7.67528 23.675 7.53609 23.2746 7.26311C23.0781 7.1291 22.9241 6.96385 22.8182 6.7513C22.7119 6.53793 22.65 6.2689 22.65 5.9222C22.65 4.85421 23.5153 3.98887 24.5833 3.98887C26.3809 3.98887 27.4851 5.10587 28.1479 6.39266Z" stroke="#8C4918" stroke-width="0.3"/>
</g>
<g id="Vector_9">
<g filter="url(#filter8_i_504_13766)">
<path d="M34.1666 8.00537C34.1666 3.8387 38.9925 3.00537 40.8333 3.00537C42.6741 3.00537 45.8333 3.77704 45.8333 6.3387C45.8333 8.17954 44.65 8.8387 43.3333 8.8387C40.705 8.8387 40.2933 7.17204 37.1158 7.17204C35.8333 7.17204 34.1666 8.00537 34.1666 8.00537Z" fill="#FF842C"/>
</g>
<path d="M34.3863 7.73803C34.3638 7.74802 34.3424 7.7576 34.3222 7.76671C34.4102 5.89909 35.5308 4.7602 36.8775 4.07663C38.2869 3.36125 39.9285 3.15537 40.8333 3.15537C41.7376 3.15537 42.9629 3.34567 43.9562 3.84541C44.9462 4.34347 45.6833 5.13451 45.6833 6.3387C45.6833 7.22495 45.3999 7.80447 44.9794 8.16516C44.5548 8.52936 43.969 8.6887 43.3333 8.6887C42.1175 8.6887 41.396 8.32455 40.613 7.92938C40.5748 7.9101 40.5364 7.89075 40.4979 7.87136C39.6597 7.44991 38.738 7.02204 37.1158 7.02204C36.4478 7.02204 35.6905 7.23776 35.1093 7.44762C34.8168 7.55324 34.565 7.65881 34.3863 7.73803Z" stroke="#8C4918" stroke-width="0.3"/>
</g>
<g id="Vector_10">
<g filter="url(#filter9_i_504_13766)">
<path d="M30.1775 39.077L28.7083 34.672H5.83333V13.8387H9.84333C9.41583 13.102 9.16667 12.2495 9.16667 11.3387C9.16667 11.0487 9.19 10.7729 9.22417 10.5054H5.83333C3.9925 10.5054 2.5 11.9979 2.5 13.8387V36.3387C2.5 38.1795 3.9925 39.672 5.83333 39.672H30.4617C30.3492 39.4845 30.2492 39.2895 30.1775 39.077Z" fill="#FF842C"/>
</g>
<path d="M30.0352 39.1245L30.0354 39.125C30.0825 39.2646 30.1408 39.3963 30.2058 39.522H5.83333C4.07534 39.522 2.65 38.0967 2.65 36.3387V13.8387C2.65 12.0807 4.07534 10.6554 5.83333 10.6554H9.05544C9.03181 10.875 9.01667 11.1019 9.01667 11.3387C9.01667 12.1858 9.22585 12.9837 9.59011 13.6887H5.83333H5.68333V13.8387V34.672V34.822H5.83333H28.6002L30.0352 39.1245Z" stroke="#8C4918" stroke-width="0.3"/>
</g>
</g>
<defs>
<filter id="filter0_i_504_13766" x="11.6666" y="41.3389" width="16.6666" height="6.6665" filterUnits="userSpaceOnUse" color-interpolation-filters="sRGB">
<feFlood flood-opacity="0" result="BackgroundImageFix"/>
<feBlend mode="normal" in="SourceGraphic" in2="BackgroundImageFix" result="shape"/>
<feColorMatrix in="SourceAlpha" type="matrix" values="0 0 0 0 0 0 0 0 0 0 0 0 0 0 0 0 0 0 127 0" result="hardAlpha"/>
<feOffset dx="1" dy="-1"/>
<feComposite in2="hardAlpha" operator="arithmetic" k2="-1" k3="1"/>
<feColorMatrix type="matrix" values="0 0 0 0 0 0 0 0 0 0 0 0 0 0 0 0 0 0 0.2 0"/>
<feBlend mode="normal" in2="shape" result="effect1_innerShadow_504_13766"/>
</filter>
<filter id="filter1_i_504_13766" x="30.001" y="31.3389" width="5.83301" height="8.3335" filterUnits="userSpaceOnUse" color-interpolation-filters="sRGB">
<feFlood flood-opacity="0" result="BackgroundImageFix"/>
<feBlend mode="normal" in="SourceGraphic" in2="BackgroundImageFix" result="shape"/>
<feColorMatrix in="SourceAlpha" type="matrix" values="0 0 0 0 0 0 0 0 0 0 0 0 0 0 0 0 0 0 127 0" result="hardAlpha"/>
<feOffset dx="1" dy="-1"/>
<feComposite in2="hardAlpha" operator="arithmetic" k2="-1" k3="1"/>
<feColorMatrix type="matrix" values="0 0 0 0 0 0 0 0 0 0 0 0 0 0 0 0 0 0 0.2 0"/>
<feBlend mode="normal" in2="shape" result="effect1_innerShadow_504_13766"/>
</filter>
<filter id="filter2_i_504_13766" x="18.3333" y="8.83887" width="20.6875" height="14.644" filterUnits="userSpaceOnUse" color-interpolation-filters="sRGB">
<feFlood flood-opacity="0" result="BackgroundImageFix"/>
<feBlend mode="normal" in="SourceGraphic" in2="BackgroundImageFix" result="shape"/>
<feColorMatrix in="SourceAlpha" type="matrix" values="0 0 0 0 0 0 0 0 0 0 0 0 0 0 0 0 0 0 127 0" result="hardAlpha"/>
<feOffset dx="1" dy="-1"/>
<feComposite in2="hardAlpha" operator="arithmetic" k2="-1" k3="1"/>
<feColorMatrix type="matrix" values="0 0 0 0 0 0 0 0 0 0 0 0 0 0 0 0 0 0 0.2 0"/>
<feBlend mode="normal" in2="shape" result="effect1_innerShadow_504_13766"/>
</filter>
<filter id="filter3_i_504_13766" x="36.5083" y="25.5049" width="10.9917" height="15.0005" filterUnits="userSpaceOnUse" color-interpolation-filters="sRGB">
<feFlood flood-opacity="0" result="BackgroundImageFix"/>
<feBlend mode="normal" in="SourceGraphic" in2="BackgroundImageFix" result="shape"/>
<feColorMatrix in="SourceAlpha" type="matrix" values="0 0 0 0 0 0 0 0 0 0 0 0 0 0 0 0 0 0 127 0" result="hardAlpha"/>
<feOffset dx="1" dy="-1"/>
<feComposite in2="hardAlpha" operator="arithmetic" k2="-1" k3="1"/>
<feColorMatrix type="matrix" values="0 0 0 0 0 0 0 0 0 0 0 0 0 0 0 0 0 0 0.2 0"/>
<feBlend mode="normal" in2="shape" result="effect1_innerShadow_504_13766"/>
</filter>
<filter id="filter4_i_504_13766" x="23.325" y="16.8428" width="17.5083" height="18.6626" filterUnits="userSpaceOnUse" color-interpolation-filters="sRGB">
<feFlood flood-opacity="0" result="BackgroundImageFix"/>
<feBlend mode="normal" in="SourceGraphic" in2="BackgroundImageFix" result="shape"/>
<feColorMatrix in="SourceAlpha" type="matrix" values="0 0 0 0 0 0 0 0 0 0 0 0 0 0 0 0 0 0 127 0" result="hardAlpha"/>
<feOffset dx="1" dy="-1"/>
<feComposite in2="hardAlpha" operator="arithmetic" k2="-1" k3="1"/>
<feColorMatrix type="matrix" values="0 0 0 0 0 0 0 0 0 0 0 0 0 0 0 0 0 0 0.2 0"/>
<feBlend mode="normal" in2="shape" result="effect1_innerShadow_504_13766"/>
</filter>
<filter id="filter5_i_504_13766" x="11.6666" y="16.3389" width="5.83337" height="11.6665" filterUnits="userSpaceOnUse" color-interpolation-filters="sRGB">
<feFlood flood-opacity="0" result="BackgroundImageFix"/>
<feBlend mode="normal" in="SourceGraphic" in2="BackgroundImageFix" result="shape"/>
<feColorMatrix in="SourceAlpha" type="matrix" values="0 0 0 0 0 0 0 0 0 0 0 0 0 0 0 0 0 0 127 0" result="hardAlpha"/>
<feOffset dx="1" dy="-1"/>
<feComposite in2="hardAlpha" operator="arithmetic" k2="-1" k3="1"/>
<feColorMatrix type="matrix" values="0 0 0 0 0 0 0 0 0 0 0 0 0 0 0 0 0 0 0.2 0"/>
<feBlend mode="normal" in2="shape" result="effect1_innerShadow_504_13766"/>
</filter>
<filter id="filter6_i_504_13766" x="10.8334" y="7.17188" width="11.6666" height="7.5" filterUnits="userSpaceOnUse" color-interpolation-filters="sRGB">
<feFlood flood-opacity="0" result="BackgroundImageFix"/>
<feBlend mode="normal" in="SourceGraphic" in2="BackgroundImageFix" result="shape"/>
<feColorMatrix in="SourceAlpha" type="matrix" values="0 0 0 0 0 0 0 0 0 0 0 0 0 0 0 0 0 0 127 0" result="hardAlpha"/>
<feOffset dx="1" dy="-1"/>
<feComposite in2="hardAlpha" operator="arithmetic" k2="-1" k3="1"/>
<feColorMatrix type="matrix" values="0 0 0 0 0 0 0 0 0 0 0 0 0 0 0 0 0 0 0.2 0"/>
<feBlend mode="normal" in2="shape" result="effect1_innerShadow_504_13766"/>
</filter>
<filter id="filter7_i_504_13766" x="22.5" y="3.83887" width="6.66663" height="5.8335" filterUnits="userSpaceOnUse" color-interpolation-filters="sRGB">
<feFlood flood-opacity="0" result="BackgroundImageFix"/>
<feBlend mode="normal" in="SourceGraphic" in2="BackgroundImageFix" result="shape"/>
<feColorMatrix in="SourceAlpha" type="matrix" values="0 0 0 0 0 0 0 0 0 0 0 0 0 0 0 0 0 0 127 0" result="hardAlpha"/>
<feOffset dx="1" dy="-1"/>
<feComposite in2="hardAlpha" operator="arithmetic" k2="-1" k3="1"/>
<feColorMatrix type="matrix" values="0 0 0 0 0 0 0 0 0 0 0 0 0 0 0 0 0 0 0.2 0"/>
<feBlend mode="normal" in2="shape" result="effect1_innerShadow_504_13766"/>
</filter>
<filter id="filter8_i_504_13766" x="34.1666" y="3.00537" width="11.6666" height="5.8335" filterUnits="userSpaceOnUse" color-interpolation-filters="sRGB">
<feFlood flood-opacity="0" result="BackgroundImageFix"/>
<feBlend mode="normal" in="SourceGraphic" in2="BackgroundImageFix" result="shape"/>
<feColorMatrix in="SourceAlpha" type="matrix" values="0 0 0 0 0 0 0 0 0 0 0 0 0 0 0 0 0 0 127 0" result="hardAlpha"/>
<feOffset dx="1" dy="-1"/>
<feComposite in2="hardAlpha" operator="arithmetic" k2="-1" k3="1"/>
<feColorMatrix type="matrix" values="0 0 0 0 0 0 0 0 0 0 0 0 0 0 0 0 0 0 0.2 0"/>
<feBlend mode="normal" in2="shape" result="effect1_innerShadow_504_13766"/>
</filter>
<filter id="filter9_i_504_13766" x="2.5" y="10.5054" width="27.9617" height="29.1665" filterUnits="userSpaceOnUse" color-interpolation-filters="sRGB">
<feFlood flood-opacity="0" result="BackgroundImageFix"/>
<feBlend mode="normal" in="SourceGraphic" in2="BackgroundImageFix" result="shape"/>
<feColorMatrix in="SourceAlpha" type="matrix" values="0 0 0 0 0 0 0 0 0 0 0 0 0 0 0 0 0 0 127 0" result="hardAlpha"/>
<feOffset dx="1" dy="-1"/>
<feComposite in2="hardAlpha" operator="arithmetic" k2="-1" k3="1"/>
<feColorMatrix type="matrix" values="0 0 0 0 0 0 0 0 0 0 0 0 0 0 0 0 0 0 0.2 0"/>
<feBlend mode="normal" in2="shape" result="effect1_innerShadow_504_13766"/>
</filter>
</defs>
</svg>
