<svg width="51" height="51" viewBox="0 0 51 51" fill="none" xmlns="http://www.w3.org/2000/svg">
<g id="Language">
<g id="Vector">
<g filter="url(#filter0_i_494_13732)">
<path d="M19.3333 33.4187C20.3291 40.9995 22.715 46.3387 25.5 46.3387C28.285 46.3387 30.6708 40.9995 31.6666 33.4187C29.7125 33.1512 27.6433 33.0054 25.5 33.0054C23.3566 33.0054 21.2875 33.1512 19.3333 33.4187Z" fill="#FF842C"/>
</g>
<path d="M25.5 46.1887C24.8552 46.1887 24.2196 45.8803 23.6066 45.2789C22.9931 44.677 22.4118 43.7899 21.8815 42.6579C20.8352 40.424 20.0009 37.2648 19.5017 33.5473C21.4055 33.2935 23.4175 33.1554 25.5 33.1554C27.5825 33.1554 29.5945 33.2935 31.4982 33.5473C30.9991 37.2648 30.1647 40.424 29.1184 42.6579C28.5882 43.7899 28.0069 44.677 27.3933 45.2789C26.7804 45.8803 26.1447 46.1887 25.5 46.1887Z" stroke="#8C4918" stroke-width="0.3"/>
</g>
<g id="Vector_2">
<g filter="url(#filter1_i_494_13732)">
<path d="M18.9975 20.918C18.8908 22.3955 18.8333 23.9288 18.8333 25.5055C18.8333 27.0821 18.8908 28.6155 18.9975 30.093C21.0575 29.818 23.2341 29.6721 25.5 29.6721C27.7658 29.6721 29.9425 29.818 32.0025 30.093C32.1091 28.6155 32.1666 27.0821 32.1666 25.5055C32.1666 23.9288 32.1091 22.3955 32.0025 20.918C29.9425 21.193 27.7658 21.3388 25.5 21.3388C23.2341 21.3388 21.0575 21.193 18.9975 20.918Z" fill="#FF842C"/>
</g>
<path d="M18.9833 25.5055C18.9833 23.9888 19.0366 22.5124 19.1358 21.0875C21.1558 21.3499 23.2856 21.4888 25.5 21.4888C27.7143 21.4888 29.8442 21.3499 31.8641 21.0875C31.9633 22.5124 32.0166 23.9888 32.0166 25.5055C32.0166 27.0221 31.9633 28.4985 31.8641 29.9235C29.8442 29.661 27.7143 29.5221 25.5 29.5221C23.2856 29.5221 21.1558 29.661 19.1358 29.9235C19.0366 28.4985 18.9833 27.0221 18.9833 25.5055Z" stroke="#8C4918" stroke-width="0.3"/>
</g>
<g id="Vector_3">
<g filter="url(#filter2_i_494_13732)">
<path d="M31.5533 45.4422C36.2325 44.023 40.2133 41.0047 42.86 37.0213C40.7942 35.7472 38.085 34.708 34.955 34.0063C34.35 38.5188 33.2308 42.5838 31.5533 45.4422Z" fill="#FF842C"/>
</g>
<path d="M35.0816 34.1888C38.0656 34.8719 40.6526 35.8629 42.6483 37.0679C40.0902 40.8557 36.3104 43.7487 31.8728 45.1849C33.4393 42.3601 34.4939 38.4744 35.0816 34.1888Z" stroke="#8C4918" stroke-width="0.3"/>
</g>
<g id="Vector_4">
<g filter="url(#filter3_i_494_13732)">
<path d="M19.4467 45.442C17.7683 42.5837 16.65 38.5187 16.045 34.0054C12.915 34.707 10.205 35.7462 8.14001 37.0204C10.7875 41.0045 14.7675 44.0237 19.4467 45.442Z" fill="#FF842C"/>
</g>
<path d="M8.35172 37.0669C10.3466 35.8619 12.9344 34.8709 15.9184 34.1879C16.5061 38.4742 17.5599 42.3599 19.1272 45.1848C14.6897 43.7493 10.9106 40.8556 8.35172 37.0669Z" stroke="#8C4918" stroke-width="0.3"/>
</g>
<g id="Vector_5">
<g filter="url(#filter4_i_494_13732)">
<path d="M19.4467 5.56885C14.7675 6.98801 10.7867 10.0063 8.14001 13.9897C10.2058 15.2638 12.915 16.303 16.045 17.0047C16.65 12.4922 17.7692 8.42718 19.4467 5.56885Z" fill="#FF842C"/>
</g>
<path d="M15.9184 16.8222C12.9344 16.1391 10.3474 15.1482 8.35173 13.9432C10.9098 10.1553 14.6896 7.26231 19.1272 5.82616C17.5607 8.65097 16.5061 12.5366 15.9184 16.8222Z" stroke="#8C4918" stroke-width="0.3"/>
</g>
<g id="Vector_6">
<g filter="url(#filter5_i_494_13732)">
<path d="M6.53835 34.1331C9.00085 32.6239 12.1134 31.4331 15.6959 30.6639C15.5667 28.9656 15.5 27.2347 15.5 25.5056C15.5 23.7764 15.5667 22.0456 15.6959 20.3481C12.1134 19.5789 9.00085 18.3872 6.53835 16.8789C5.34002 19.5081 4.66669 22.4272 4.66669 25.5056C4.66669 28.5839 5.34002 31.5031 6.53835 34.1331Z" fill="#FF842C"/>
</g>
<path d="M15.5365 30.5449C12.0645 31.3024 9.03201 32.4569 6.60543 33.9169C5.45917 31.346 4.81669 28.5018 4.81669 25.5056C4.81669 22.5093 5.45917 19.6651 6.60543 17.0951C9.03198 18.5543 12.0644 19.7095 15.5365 20.4671C15.4135 22.1265 15.35 23.8168 15.35 25.5056C15.35 27.1943 15.4135 28.8847 15.5365 30.5449Z" stroke="#8C4918" stroke-width="0.3"/>
</g>
<g id="Vector_7">
<g filter="url(#filter6_i_494_13732)">
<path d="M25.5 4.67188C22.715 4.67188 20.3291 10.011 19.3333 17.5919C21.2875 17.8594 23.3566 18.0052 25.5 18.0052C27.6433 18.0052 29.7125 17.8594 31.6666 17.5919C30.6708 10.011 28.285 4.67188 25.5 4.67188Z" fill="#FF842C"/>
</g>
<path d="M25.5 17.8552C23.4175 17.8552 21.4055 17.7171 19.5017 17.4633C20.0009 13.7457 20.8352 10.5866 21.8815 8.35269C22.4118 7.22065 22.9931 6.33362 23.6066 5.73164C24.2196 5.13023 24.8552 4.82188 25.5 4.82188C26.1447 4.82188 26.7804 5.13023 27.3933 5.73164C28.0069 6.33362 28.5882 7.22065 29.1184 8.35269C30.1647 10.5866 30.9991 13.7457 31.4982 17.4633C29.5945 17.7171 27.5825 17.8552 25.5 17.8552Z" stroke="#8C4918" stroke-width="0.3"/>
</g>
<g id="Vector_8">
<g filter="url(#filter7_i_494_13732)">
<path d="M44.4616 16.8779C41.9991 18.3871 38.8866 19.5779 35.3041 20.3471C35.4333 22.0454 35.5 23.7763 35.5 25.5054C35.5 27.2346 35.4333 28.9654 35.3041 30.6629C38.8866 31.4321 41.9991 32.6238 44.4616 34.1321C45.66 31.5029 46.3333 28.5838 46.3333 25.5054C46.3333 22.4271 45.66 19.5079 44.4616 16.8779Z" fill="#FF842C"/>
</g>
<path d="M35.65 25.5054C35.65 23.8167 35.5865 22.1263 35.4635 20.4661C38.9355 19.7086 41.968 18.5541 44.3946 17.0941C45.5408 19.665 46.1833 22.5092 46.1833 25.5054C46.1833 28.5017 45.5408 31.3459 44.3946 33.9159C41.968 32.4567 38.9355 31.3015 35.4635 30.5439C35.5865 28.8845 35.65 27.1942 35.65 25.5054Z" stroke="#8C4918" stroke-width="0.3"/>
</g>
<g id="Vector_9">
<g filter="url(#filter8_i_494_13732)">
<path d="M31.5533 5.56885C33.2317 8.42718 34.35 12.4922 34.955 17.0055C38.085 16.3038 40.795 15.2647 42.86 13.9905C40.2125 10.0063 36.2325 6.98718 31.5533 5.56885Z" fill="#FF842C"/>
</g>
<path d="M31.8729 5.82613C36.3104 7.26156 40.0894 10.1553 42.6483 13.944C40.6534 15.149 38.0657 16.14 35.0816 16.823C34.494 12.5367 33.4401 8.65097 31.8729 5.82613Z" stroke="#8C4918" stroke-width="0.3"/>
</g>
</g>
<defs>
<filter id="filter0_i_494_13732" x="19.3333" y="33.0054" width="12.3333" height="13.3335" filterUnits="userSpaceOnUse" color-interpolation-filters="sRGB">
<feFlood flood-opacity="0" result="BackgroundImageFix"/>
<feBlend mode="normal" in="SourceGraphic" in2="BackgroundImageFix" result="shape"/>
<feColorMatrix in="SourceAlpha" type="matrix" values="0 0 0 0 0 0 0 0 0 0 0 0 0 0 0 0 0 0 127 0" result="hardAlpha"/>
<feOffset dx="1" dy="-1"/>
<feComposite in2="hardAlpha" operator="arithmetic" k2="-1" k3="1"/>
<feColorMatrix type="matrix" values="0 0 0 0 0 0 0 0 0 0 0 0 0 0 0 0 0 0 0.2 0"/>
<feBlend mode="normal" in2="shape" result="effect1_innerShadow_494_13732"/>
</filter>
<filter id="filter1_i_494_13732" x="18.8333" y="20.918" width="13.3333" height="9.1748" filterUnits="userSpaceOnUse" color-interpolation-filters="sRGB">
<feFlood flood-opacity="0" result="BackgroundImageFix"/>
<feBlend mode="normal" in="SourceGraphic" in2="BackgroundImageFix" result="shape"/>
<feColorMatrix in="SourceAlpha" type="matrix" values="0 0 0 0 0 0 0 0 0 0 0 0 0 0 0 0 0 0 127 0" result="hardAlpha"/>
<feOffset dx="1" dy="-1"/>
<feComposite in2="hardAlpha" operator="arithmetic" k2="-1" k3="1"/>
<feColorMatrix type="matrix" values="0 0 0 0 0 0 0 0 0 0 0 0 0 0 0 0 0 0 0.2 0"/>
<feBlend mode="normal" in2="shape" result="effect1_innerShadow_494_13732"/>
</filter>
<filter id="filter2_i_494_13732" x="31.5533" y="34.0063" width="11.3066" height="11.436" filterUnits="userSpaceOnUse" color-interpolation-filters="sRGB">
<feFlood flood-opacity="0" result="BackgroundImageFix"/>
<feBlend mode="normal" in="SourceGraphic" in2="BackgroundImageFix" result="shape"/>
<feColorMatrix in="SourceAlpha" type="matrix" values="0 0 0 0 0 0 0 0 0 0 0 0 0 0 0 0 0 0 127 0" result="hardAlpha"/>
<feOffset dx="1" dy="-1"/>
<feComposite in2="hardAlpha" operator="arithmetic" k2="-1" k3="1"/>
<feColorMatrix type="matrix" values="0 0 0 0 0 0 0 0 0 0 0 0 0 0 0 0 0 0 0.2 0"/>
<feBlend mode="normal" in2="shape" result="effect1_innerShadow_494_13732"/>
</filter>
<filter id="filter3_i_494_13732" x="8.14001" y="34.0054" width="11.3066" height="11.4365" filterUnits="userSpaceOnUse" color-interpolation-filters="sRGB">
<feFlood flood-opacity="0" result="BackgroundImageFix"/>
<feBlend mode="normal" in="SourceGraphic" in2="BackgroundImageFix" result="shape"/>
<feColorMatrix in="SourceAlpha" type="matrix" values="0 0 0 0 0 0 0 0 0 0 0 0 0 0 0 0 0 0 127 0" result="hardAlpha"/>
<feOffset dx="1" dy="-1"/>
<feComposite in2="hardAlpha" operator="arithmetic" k2="-1" k3="1"/>
<feColorMatrix type="matrix" values="0 0 0 0 0 0 0 0 0 0 0 0 0 0 0 0 0 0 0.2 0"/>
<feBlend mode="normal" in2="shape" result="effect1_innerShadow_494_13732"/>
</filter>
<filter id="filter4_i_494_13732" x="8.14001" y="5.56885" width="11.3066" height="11.436" filterUnits="userSpaceOnUse" color-interpolation-filters="sRGB">
<feFlood flood-opacity="0" result="BackgroundImageFix"/>
<feBlend mode="normal" in="SourceGraphic" in2="BackgroundImageFix" result="shape"/>
<feColorMatrix in="SourceAlpha" type="matrix" values="0 0 0 0 0 0 0 0 0 0 0 0 0 0 0 0 0 0 127 0" result="hardAlpha"/>
<feOffset dx="1" dy="-1"/>
<feComposite in2="hardAlpha" operator="arithmetic" k2="-1" k3="1"/>
<feColorMatrix type="matrix" values="0 0 0 0 0 0 0 0 0 0 0 0 0 0 0 0 0 0 0.2 0"/>
<feBlend mode="normal" in2="shape" result="effect1_innerShadow_494_13732"/>
</filter>
<filter id="filter5_i_494_13732" x="4.66669" y="16.8789" width="11.0292" height="17.2544" filterUnits="userSpaceOnUse" color-interpolation-filters="sRGB">
<feFlood flood-opacity="0" result="BackgroundImageFix"/>
<feBlend mode="normal" in="SourceGraphic" in2="BackgroundImageFix" result="shape"/>
<feColorMatrix in="SourceAlpha" type="matrix" values="0 0 0 0 0 0 0 0 0 0 0 0 0 0 0 0 0 0 127 0" result="hardAlpha"/>
<feOffset dx="1" dy="-1"/>
<feComposite in2="hardAlpha" operator="arithmetic" k2="-1" k3="1"/>
<feColorMatrix type="matrix" values="0 0 0 0 0 0 0 0 0 0 0 0 0 0 0 0 0 0 0.2 0"/>
<feBlend mode="normal" in2="shape" result="effect1_innerShadow_494_13732"/>
</filter>
<filter id="filter6_i_494_13732" x="19.3333" y="4.67188" width="12.3333" height="13.3335" filterUnits="userSpaceOnUse" color-interpolation-filters="sRGB">
<feFlood flood-opacity="0" result="BackgroundImageFix"/>
<feBlend mode="normal" in="SourceGraphic" in2="BackgroundImageFix" result="shape"/>
<feColorMatrix in="SourceAlpha" type="matrix" values="0 0 0 0 0 0 0 0 0 0 0 0 0 0 0 0 0 0 127 0" result="hardAlpha"/>
<feOffset dx="1" dy="-1"/>
<feComposite in2="hardAlpha" operator="arithmetic" k2="-1" k3="1"/>
<feColorMatrix type="matrix" values="0 0 0 0 0 0 0 0 0 0 0 0 0 0 0 0 0 0 0.2 0"/>
<feBlend mode="normal" in2="shape" result="effect1_innerShadow_494_13732"/>
</filter>
<filter id="filter7_i_494_13732" x="35.3041" y="16.8779" width="11.0292" height="17.2544" filterUnits="userSpaceOnUse" color-interpolation-filters="sRGB">
<feFlood flood-opacity="0" result="BackgroundImageFix"/>
<feBlend mode="normal" in="SourceGraphic" in2="BackgroundImageFix" result="shape"/>
<feColorMatrix in="SourceAlpha" type="matrix" values="0 0 0 0 0 0 0 0 0 0 0 0 0 0 0 0 0 0 127 0" result="hardAlpha"/>
<feOffset dx="1" dy="-1"/>
<feComposite in2="hardAlpha" operator="arithmetic" k2="-1" k3="1"/>
<feColorMatrix type="matrix" values="0 0 0 0 0 0 0 0 0 0 0 0 0 0 0 0 0 0 0.2 0"/>
<feBlend mode="normal" in2="shape" result="effect1_innerShadow_494_13732"/>
</filter>
<filter id="filter8_i_494_13732" x="31.5533" y="5.56885" width="11.3066" height="11.4365" filterUnits="userSpaceOnUse" color-interpolation-filters="sRGB">
<feFlood flood-opacity="0" result="BackgroundImageFix"/>
<feBlend mode="normal" in="SourceGraphic" in2="BackgroundImageFix" result="shape"/>
<feColorMatrix in="SourceAlpha" type="matrix" values="0 0 0 0 0 0 0 0 0 0 0 0 0 0 0 0 0 0 127 0" result="hardAlpha"/>
<feOffset dx="1" dy="-1"/>
<feComposite in2="hardAlpha" operator="arithmetic" k2="-1" k3="1"/>
<feColorMatrix type="matrix" values="0 0 0 0 0 0 0 0 0 0 0 0 0 0 0 0 0 0 0.2 0"/>
<feBlend mode="normal" in2="shape" result="effect1_innerShadow_494_13732"/>
</filter>
</defs>
</svg>
