<svg width="160" height="35" viewBox="0 0 160 35" fill="none" xmlns="http://www.w3.org/2000/svg">
<path d="M14.0907 16.9041H5.69236V22.2803H12.7125C13.3634 22.2803 13.8467 22.4285 14.1625 22.7248C14.4879 23.0115 14.6506 23.3986 14.6506 23.8861C14.6506 24.3735 14.4879 24.7606 14.1625 25.0473C13.8371 25.3341 13.3538 25.4774 12.7125 25.4774H5.69236V32.402C5.69236 33.2814 5.49138 33.9361 5.0894 34.3662C4.697 34.7867 4.18975 34.997 3.56765 34.997C2.93597 34.997 2.41915 34.7819 2.01718 34.3518C1.62477 33.9217 1.42857 33.2718 1.42857 32.402V16.2303C1.42857 15.6186 1.5195 15.1216 1.70134 14.7393C1.88319 14.3474 2.16552 14.0654 2.54836 13.8934C2.94076 13.7118 3.43844 13.621 4.0414 13.621H14.0907C14.7703 13.621 15.2727 13.7739 15.5981 14.0798C15.9331 14.3761 16.1006 14.7679 16.1006 15.2554C16.1006 15.7524 15.9331 16.1538 15.5981 16.4597C15.2727 16.7559 14.7703 16.9041 14.0907 16.9041Z" fill="white"/>
<path d="M19.3164 25.9505V15.8432C19.3164 14.983 19.5078 14.3378 19.8906 13.9077C20.283 13.4776 20.7951 13.2626 21.4267 13.2626C22.0871 13.2626 22.6087 13.4776 22.9916 13.9077C23.384 14.3378 23.5802 14.983 23.5802 15.8432V26.1799C23.5802 27.3555 23.7094 28.34 23.9678 29.1333C24.2358 29.917 24.7047 30.5287 25.3747 30.9684C26.0447 31.3985 26.9826 31.6135 28.1885 31.6135C29.8538 31.6135 31.031 31.1739 31.7201 30.2945C32.4092 29.4057 32.7538 28.0628 32.7538 26.2659V15.8432C32.7538 14.9734 32.9452 14.3283 33.328 13.9077C33.7109 13.4776 34.2229 13.2626 34.8641 13.2626C35.5054 13.2626 36.0222 13.4776 36.4146 13.9077C36.8166 14.3283 37.0176 14.9734 37.0176 15.8432V25.9505C37.0176 27.5945 36.8549 28.966 36.5295 30.0652C36.2136 31.1643 35.6107 32.1296 34.7206 32.9612C33.9549 33.6684 33.0648 34.1846 32.0503 34.5095C31.0358 34.8345 29.849 34.997 28.49 34.997C26.8725 34.997 25.48 34.8249 24.3123 34.4809C23.1447 34.1272 22.1924 33.5872 21.4555 32.8608C20.7185 32.1249 20.1778 31.1882 19.8332 30.0508C19.4887 28.9039 19.3164 27.5371 19.3164 25.9505Z" fill="white"/>
<path d="M55.293 17.1335H50.6416V32.402C50.6416 33.2814 50.4454 33.9361 50.053 34.3662C49.6606 34.7867 49.1533 34.997 48.5312 34.997C47.8996 34.997 47.3827 34.7819 46.9808 34.3518C46.5884 33.9217 46.3922 33.2718 46.3922 32.402V17.1335H41.7408C41.0134 17.1335 40.4726 16.9758 40.1185 16.6604C39.7644 16.3354 39.5873 15.9101 39.5873 15.3844C39.5873 14.8396 39.7692 14.4095 40.1329 14.0941C40.5061 13.7787 41.0421 13.621 41.7408 13.621H55.293C56.0299 13.621 56.5755 13.7835 56.9296 14.1084C57.2933 14.4334 57.4751 14.8587 57.4751 15.3844C57.4751 15.9101 57.2933 16.3354 56.9296 16.6604C56.5659 16.9758 56.0204 17.1335 55.293 17.1335Z" fill="white"/>
<path d="M88.0682 25.6495H86.5751V32.402C86.5751 33.2909 86.3789 33.9456 85.9865 34.3662C85.5941 34.7867 85.0821 34.997 84.4504 34.997C83.7709 34.997 83.2445 34.7772 82.8712 34.3375C82.498 33.8978 82.3113 33.2527 82.3113 32.402V16.2303C82.3113 15.3127 82.5171 14.6485 82.9287 14.2375C83.3402 13.8265 84.0054 13.621 84.9242 13.621H91.8582C92.8153 13.621 93.6336 13.664 94.3131 13.75C94.9926 13.8265 95.6052 13.989 96.1507 14.2375C96.8111 14.5146 97.3949 14.9113 97.9022 15.4274C98.4094 15.9435 98.7923 16.5457 99.0507 17.2338C99.3186 17.9124 99.4526 18.634 99.4526 19.3987C99.4526 20.9661 99.0076 22.2182 98.1175 23.1549C97.237 24.0915 95.8971 24.7558 94.0978 25.1477C94.8539 25.5491 95.5765 26.1417 96.2656 26.9254C96.9547 27.7092 97.5672 28.5455 98.1032 29.4343C98.6487 30.3137 99.0698 31.1117 99.3665 31.8286C99.6728 32.5359 99.8259 33.0233 99.8259 33.2909C99.8259 33.5681 99.735 33.8453 99.5531 34.1224C99.3809 34.3901 99.1416 34.6003 98.8353 34.7533C98.5291 34.9157 98.1749 34.997 97.773 34.997C97.2944 34.997 96.8924 34.8823 96.567 34.6529C96.2416 34.4331 95.9593 34.1511 95.72 33.807C95.4903 33.463 95.1745 32.9564 94.7725 32.2873L93.0641 29.4487C92.4516 28.4069 91.9013 27.6136 91.4132 27.0688C90.9346 26.524 90.4465 26.1512 89.9488 25.9505C89.4512 25.7498 88.8243 25.6495 88.0682 25.6495ZM90.5087 16.8181H86.5751V22.5958H90.3939C91.418 22.5958 92.2793 22.5097 92.978 22.3377C93.6767 22.1561 94.2078 21.855 94.5715 21.4345C94.9448 21.0044 95.1314 20.4166 95.1314 19.6711C95.1314 19.088 94.9831 18.5767 94.6864 18.137C94.3897 17.6878 93.9781 17.3533 93.4518 17.1335C92.9541 16.9232 91.9731 16.8181 90.5087 16.8181Z" fill="white"/>
<path d="M117.369 16.9041H107.765V22.0653H116.608C117.259 22.0653 117.742 22.2134 118.058 22.5097C118.384 22.7965 118.546 23.1788 118.546 23.6567C118.546 24.1346 118.388 24.5264 118.073 24.8323C117.757 25.1286 117.269 25.2767 116.608 25.2767H107.765V31.2551H117.699C118.369 31.2551 118.872 31.4128 119.207 31.7282C119.551 32.0341 119.724 32.4451 119.724 32.9612C119.724 33.4582 119.551 33.8644 119.207 34.1798C118.872 34.4856 118.369 34.6386 117.699 34.6386H106.114C105.186 34.6386 104.516 34.4331 104.104 34.0221C103.702 33.6111 103.501 32.9468 103.501 32.0293V16.2303C103.501 15.6186 103.592 15.1216 103.774 14.7393C103.956 14.3474 104.238 14.0654 104.621 13.8934C105.013 13.7118 105.511 13.621 106.114 13.621H117.369C118.049 13.621 118.551 13.7739 118.877 14.0798C119.212 14.3761 119.379 14.7679 119.379 15.2554C119.379 15.7524 119.212 16.1538 118.877 16.4597C118.551 16.7559 118.049 16.9041 117.369 16.9041Z" fill="white"/>
<path d="M139.104 28.3304C139.104 29.6016 138.774 30.7438 138.114 31.7569C137.463 32.77 136.506 33.5633 135.243 34.1368C133.979 34.7102 132.481 34.997 130.749 34.997C128.672 34.997 126.959 34.6051 125.61 33.8214C124.653 33.2575 123.873 32.5072 123.27 31.5705C122.676 30.6243 122.379 29.7067 122.379 28.8179C122.379 28.3018 122.557 27.8621 122.911 27.4989C123.274 27.1261 123.734 26.9398 124.289 26.9398C124.739 26.9398 125.117 27.0831 125.423 27.3699C125.739 27.6566 126.007 28.0819 126.227 28.6458C126.495 29.3149 126.782 29.874 127.088 30.3232C127.404 30.7724 127.844 31.1452 128.409 31.4415C128.974 31.7282 129.715 31.8716 130.634 31.8716C131.898 31.8716 132.922 31.5801 133.707 30.997C134.501 30.4045 134.898 29.6685 134.898 28.7892C134.898 28.0915 134.683 27.5276 134.252 27.0975C133.831 26.6578 133.281 26.3233 132.601 26.0939C131.931 25.8645 131.031 25.6208 129.902 25.3627C128.39 25.0091 127.122 24.5981 126.098 24.1298C125.083 23.6519 124.274 23.0067 123.672 22.1943C123.078 21.3724 122.781 20.3545 122.781 19.1406C122.781 17.9841 123.097 16.9567 123.729 16.0582C124.361 15.1598 125.275 14.4716 126.471 13.9937C127.667 13.5063 129.074 13.2626 130.692 13.2626C131.984 13.2626 133.099 13.4251 134.037 13.75C134.984 14.0654 135.769 14.4907 136.391 15.026C137.013 15.5517 137.468 16.106 137.755 16.689C138.042 17.2721 138.186 17.8408 138.186 18.3951C138.186 18.9017 138.004 19.3604 137.64 19.7714C137.286 20.1729 136.841 20.3736 136.305 20.3736C135.817 20.3736 135.444 20.2541 135.185 20.0152C134.936 19.7666 134.664 19.3652 134.367 18.8109C133.984 18.0176 133.525 17.4011 132.989 16.9614C132.453 16.5122 131.591 16.2876 130.405 16.2876C129.304 16.2876 128.414 16.5313 127.734 17.0188C127.064 17.4967 126.729 18.0749 126.729 18.7535C126.729 19.1741 126.844 19.5373 127.074 19.8431C127.304 20.149 127.619 20.4118 128.021 20.6316C128.423 20.8515 128.83 21.0235 129.242 21.1477C129.653 21.272 130.333 21.4536 131.28 21.6925C132.467 21.9697 133.539 22.2756 134.496 22.6101C135.463 22.9446 136.281 23.3508 136.951 23.8287C137.631 24.3066 138.157 24.9135 138.53 25.6495C138.913 26.3759 139.104 27.2695 139.104 28.3304Z" fill="white"/>
<path d="M156.389 17.1335H151.738V32.402C151.738 33.2814 151.542 33.9361 151.149 34.3662C150.757 34.7867 150.25 34.997 149.628 34.997C148.996 34.997 148.479 34.7819 148.077 34.3518C147.685 33.9217 147.488 33.2718 147.488 32.402V17.1335H142.837C142.11 17.1335 141.569 16.9758 141.215 16.6604C140.861 16.3354 140.684 15.9101 140.684 15.3844C140.684 14.8396 140.865 14.4095 141.229 14.0941C141.602 13.7787 142.138 13.621 142.837 13.621H156.389C157.126 13.621 157.672 13.7835 158.026 14.1084C158.39 14.4334 158.571 14.8587 158.571 15.3844C158.571 15.9101 158.39 16.3354 158.026 16.6604C157.662 16.9758 157.117 17.1335 156.389 17.1335Z" fill="white"/>
<path fill-rule="evenodd" clip-rule="evenodd" d="M75.1291 24.9899C74.8493 22.8338 74.5646 20.6402 75.9723 19.8438C76.0356 19.808 76.098 19.7753 76.157 19.7444C76.6188 19.5024 76.8726 19.3694 75.7391 18.6994C74.5157 18.0844 74.393 14.2889 73.7819 11.1345C73.7371 10.9032 73.693 10.6754 73.6494 10.4525C73.4858 9.61651 73.8781 8.50879 74.7017 8.72626C75.2751 9.15246 75.6075 10.6339 75.9888 12.3333C76.5474 14.8228 77.2109 17.7801 78.8908 18.5742C80.445 19.4381 80.097 19.6097 79.4638 19.9217C79.3829 19.9616 79.2974 20.0038 79.2105 20.05C77.2802 21.0769 77.6706 23.9054 78.0543 26.6857C78.4058 29.2325 78.7517 31.7388 77.3031 32.7827C73.3719 35.7374 65.6005 35.7406 61.6693 32.7827C60.2182 31.7414 60.5643 29.2326 60.9159 26.6834C61.2994 23.9031 61.6895 21.0748 59.7619 20.05C59.7017 20.018 59.6404 19.9872 59.5802 19.957C58.9974 19.6646 58.5124 19.4213 60.0816 18.5742C61.7584 17.7862 62.4213 14.8271 62.9793 12.3359C63.3608 10.6331 63.6933 9.14891 64.2671 8.72626C65.1917 8.46945 65.5975 9.77852 65.4003 10.7177C65.372 10.8526 65.3434 10.989 65.3146 11.1267C64.6536 14.2844 64.4699 18.0884 63.2472 18.6994C62.1028 19.3563 62.4565 19.545 62.8815 19.7717C62.9254 19.7952 62.9701 19.819 63.014 19.8438C64.4198 20.6386 64.1353 22.8319 63.8556 24.9881C63.5992 26.965 62.7343 29.444 63.7925 30.2516C66.6594 32.5454 72.3269 32.5429 75.1938 30.2516C76.2503 29.442 75.3855 26.9649 75.1291 24.9899Z" fill="#FF842C"/>
<mask id="path-3-inside-1_486_753" fill="white">
<path d="M66.5486 16.2362C66.7211 16.1899 66.749 15.7338 66.6108 15.2174C66.4727 14.7009 66.2209 14.3198 66.0484 14.3661C65.8759 14.4124 65.848 14.8686 65.9862 15.385C66.1243 15.9014 66.3761 16.2825 66.5486 16.2362Z"/>
</mask>
<path d="M66.5486 16.2362C66.7211 16.1899 66.749 15.7338 66.6108 15.2174C66.4727 14.7009 66.2209 14.3198 66.0484 14.3661C65.8759 14.4124 65.848 14.8686 65.9862 15.385C66.1243 15.9014 66.3761 16.2825 66.5486 16.2362Z" fill="white"/>
<path d="M65.948 15.3953C66.0033 15.6019 66.017 15.7692 66.0113 15.8617C66.0083 15.9118 66.0018 15.9021 66.0205 15.8588C66.0353 15.8243 66.1249 15.6394 66.3713 15.5733L66.726 16.8992C67.0586 16.81 67.2164 16.5506 67.2806 16.4015C67.3487 16.2435 67.3729 16.0788 67.3811 15.9445C67.398 15.6682 67.3565 15.3492 67.2737 15.0395L65.948 15.3953ZM66.3713 15.5733C66.6176 15.5071 66.7876 15.6224 66.8176 15.6448C66.8554 15.673 66.8546 15.6846 66.827 15.6428C66.7759 15.5655 66.7043 15.4138 66.649 15.2071L65.3233 15.5629C65.4062 15.8727 65.5295 16.1697 65.682 16.4005C65.7562 16.5127 65.8594 16.6432 65.9972 16.746C66.1273 16.8429 66.3934 16.9885 66.726 16.8992L66.3713 15.5733ZM66.649 15.2071C66.5937 15.0005 66.58 14.8332 66.5856 14.7406C66.5887 14.6906 66.5952 14.7003 66.5765 14.7436C66.5617 14.778 66.4721 14.963 66.2257 15.0291L65.871 13.7031C65.5384 13.7924 65.3806 14.0517 65.3164 14.2009C65.2483 14.3589 65.2241 14.5236 65.2159 14.6579C65.199 14.9342 65.2405 15.2532 65.3233 15.5629L66.649 15.2071ZM66.2257 15.0291C65.9794 15.0952 65.8094 14.9799 65.7794 14.9575C65.7416 14.9294 65.7424 14.9178 65.77 14.9595C65.8211 15.0368 65.8927 15.1886 65.948 15.3953L67.2737 15.0395C67.1908 14.7297 67.0675 14.4327 66.915 14.2019C66.8408 14.0896 66.7376 13.9591 66.5998 13.8564C66.4697 13.7594 66.2036 13.6139 65.871 13.7031L66.2257 15.0291Z" fill="white" mask="url(#path-3-inside-1_486_753)"/>
<mask id="path-5-inside-2_486_753" fill="white">
<path d="M73.1052 15.3871C73.2434 14.8707 73.2155 14.4145 73.043 14.3682C72.8705 14.3219 72.6187 14.703 72.4806 15.2194C72.3424 15.7358 72.3703 16.192 72.5428 16.2383C72.7153 16.2846 72.9671 15.9035 73.1052 15.3871Z"/>
</mask>
<path d="M73.1052 15.3871C73.2434 14.8707 73.2155 14.4145 73.043 14.3682C72.8705 14.3219 72.6187 14.703 72.4806 15.2194C72.3424 15.7358 72.3703 16.192 72.5428 16.2383C72.7153 16.2846 72.9671 15.9035 73.1052 15.3871Z" fill="white"/>
<path d="M72.8657 15.0312C72.6193 14.965 72.5297 14.7801 72.5149 14.7456C72.4962 14.7024 72.5027 14.6927 72.5058 14.7427C72.5114 14.8352 72.4977 15.0025 72.4424 15.2092L73.7681 15.565C73.851 15.2552 73.8924 14.9362 73.8755 14.66C73.8673 14.5256 73.8431 14.3609 73.775 14.2029C73.7108 14.0538 73.553 13.7945 73.2204 13.7052L72.8657 15.0312ZM72.4424 15.2092C72.3871 15.4158 72.3155 15.5676 72.2644 15.6449C72.2368 15.6867 72.236 15.675 72.2738 15.6469C72.3038 15.6245 72.4738 15.5092 72.7201 15.5753L72.3654 16.9013C72.698 16.9906 72.9641 16.845 73.0942 16.748C73.232 16.6453 73.3352 16.5148 73.4094 16.4025C73.5619 16.1718 73.6852 15.8747 73.7681 15.565L72.4424 15.2092ZM72.7201 15.5753C72.9665 15.6414 73.0561 15.8264 73.0709 15.8608C73.0896 15.9041 73.0831 15.9138 73.0801 15.8638C73.0744 15.7713 73.0881 15.604 73.1434 15.3973L71.8177 15.0415C71.7349 15.3513 71.6934 15.6703 71.7103 15.9465C71.7185 16.0809 71.7427 16.2456 71.8108 16.4035C71.875 16.5527 72.0328 16.812 72.3654 16.9013L72.7201 15.5753ZM73.1434 15.3973C73.1987 15.1907 73.2703 15.0389 73.3214 14.9616C73.349 14.9198 73.3498 14.9314 73.312 14.9596C73.282 14.982 73.112 15.0973 72.8657 15.0312L73.2204 13.7052C72.8878 13.6159 72.6217 13.7615 72.4916 13.8585C72.3538 13.9612 72.2506 14.0917 72.1764 14.204C72.024 14.4347 71.9006 14.7317 71.8177 15.0415L73.1434 15.3973Z" fill="white" mask="url(#path-5-inside-2_486_753)"/>
<path d="M78.8953 3.25114C78.6684 4.54736 78.0262 5.51468 77.4612 5.41795C76.9011 5.31638 76.6307 4.18461 76.8625 2.88839C77.0894 1.59218 77.7316 0.620012 78.2966 0.721582C78.8567 0.823151 79.1271 1.95492 78.8953 3.25114Z" fill="white"/>
<path d="M61.3922 5.41795C60.8321 5.51468 60.1899 4.54736 59.9581 3.25114C59.7263 1.95492 59.9967 0.823151 60.5617 0.721582C61.1218 0.620012 61.764 1.59218 61.9958 2.88839C62.2275 4.18461 61.9571 5.31638 61.3922 5.41795Z" fill="white"/>
</svg>
