<svg width="24" height="25" viewBox="0 0 24 25" fill="none" xmlns="http://www.w3.org/2000/svg">
<g id="mdi:linkedin">
<path id="Vector" d="M19 3.50537C19.5304 3.50537 20.0391 3.71608 20.4142 4.09116C20.7893 4.46623 21 4.97494 21 5.50537V19.5054C21 20.0358 20.7893 20.5445 20.4142 20.9196C20.0391 21.2947 19.5304 21.5054 19 21.5054H5C4.46957 21.5054 3.96086 21.2947 3.58579 20.9196C3.21071 20.5445 3 20.0358 3 19.5054V5.50537C3 4.97494 3.21071 4.46623 3.58579 4.09116C3.96086 3.71608 4.46957 3.50537 5 3.50537H19ZM18.5 19.0054V13.7054C18.5 12.8408 18.1565 12.0116 17.5452 11.4002C16.9338 10.7888 16.1046 10.4454 15.24 10.4454C14.39 10.4454 13.4 10.9654 12.92 11.7454V10.6354H10.13V19.0054H12.92V14.0754C12.92 13.3054 13.54 12.6754 14.31 12.6754C14.6813 12.6754 15.0374 12.8229 15.2999 13.0854C15.5625 13.348 15.71 13.7041 15.71 14.0754V19.0054H18.5ZM6.88 9.06537C7.32556 9.06537 7.75288 8.88837 8.06794 8.57331C8.383 8.25825 8.56 7.83094 8.56 7.38537C8.56 6.45537 7.81 5.69537 6.88 5.69537C6.43178 5.69537 6.00193 5.87342 5.68499 6.19036C5.36805 6.5073 5.19 6.93716 5.19 7.38537C5.19 8.31537 5.95 9.06537 6.88 9.06537ZM8.27 19.0054V10.6354H5.5V19.0054H8.27Z" fill="white"/>
</g>
</svg>
