<svg width="51" height="51" viewBox="0 0 51 51" fill="none" xmlns="http://www.w3.org/2000/svg">
<g id="Resize">
<g id="Vector">
<g filter="url(#filter0_i_494_13727)">
<path d="M25.5 28.0055C25.5 27.0855 24.7533 26.3389 23.8333 26.3389H7.16667C6.24667 26.3389 5.5 27.0855 5.5 28.0055V43.8389C5.5 44.7589 6.24667 45.5055 7.16667 45.5055H23.8333C24.7533 45.5055 25.5 44.7589 25.5 43.8389V28.0055Z" fill="#FF842C"/>
</g>
<path d="M23.8333 26.4889C24.6705 26.4889 25.35 27.1684 25.35 28.0055V43.8389C25.35 44.676 24.6705 45.3555 23.8333 45.3555H7.16667C6.32951 45.3555 5.65 44.676 5.65 43.8389V28.0055C5.65 27.1684 6.32951 26.4889 7.16667 26.4889H23.8333Z" stroke="#8C4918" stroke-width="0.3"/>
</g>
<g id="Vector_2">
<g filter="url(#filter1_i_494_13727)">
<path d="M43.8333 5.50537H7.16667C6.24667 5.50537 5.5 6.25204 5.5 7.17204V23.297C6.0225 23.1112 6.58167 23.0054 7.16667 23.0054H23.8333C26.5908 23.0054 28.8333 25.2479 28.8333 28.0054V43.8387C28.8333 44.4237 28.7275 44.9829 28.5417 45.5054H43.8333C44.7533 45.5054 45.5 44.7587 45.5 43.8387V7.17204C45.5 6.25204 44.7533 5.50537 43.8333 5.50537ZM42.1667 17.727C42.1667 18.7162 40.9717 19.2104 40.2725 18.5112L37.5717 15.8087L33.3458 20.017C33.0442 20.3187 32.6275 20.5054 32.1667 20.5054C31.2467 20.5054 30.5 19.7587 30.5 18.8387C30.5 18.3787 30.6867 17.962 30.9883 17.6604L35.1992 13.4362L32.4933 10.7287C31.7958 10.0312 32.2892 8.8387 33.2758 8.8387H40.5C41.42 8.8387 42.1667 9.58537 42.1667 10.5054V17.727Z" fill="#FF842C"/>
</g>
<path d="M40.1664 18.6173L40.1664 18.6172L37.5714 16.0206L33.4519 20.1231L33.4517 20.1233M40.1664 18.6173L30.9883 17.6604C30.6867 17.962 30.5 18.3787 30.5 18.8387C30.5 19.7587 31.2467 20.5054 32.1667 20.5054C32.6275 20.5054 33.0442 20.3187 33.3458 20.017L33.4517 20.1233M40.1664 18.6173C40.96 19.4108 42.3167 18.85 42.3167 17.727V10.5054C42.3167 9.50253 41.5028 8.6887 40.5 8.6887H33.2758C32.1554 8.6887 31.5954 10.0429 32.3873 10.8348L34.9872 13.4363L30.8823 17.5543M40.1664 18.6173L30.8823 17.5543M33.4517 20.1233C33.1231 20.4518 32.6688 20.6554 32.1667 20.6554C31.1638 20.6554 30.35 19.8415 30.35 18.8387C30.35 18.3374 30.5536 17.8831 30.8821 17.5545C30.8822 17.5544 30.8822 17.5544 30.8823 17.5543M33.4517 20.1233L30.8823 17.5543M7.16667 5.65537H43.8333C44.6705 5.65537 45.35 6.33488 45.35 7.17204V43.8387C45.35 44.6759 44.6705 45.3554 43.8333 45.3554H28.7498C28.8994 44.8759 28.9833 44.3677 28.9833 43.8387V28.0054C28.9833 25.165 26.6737 22.8554 23.8333 22.8554H7.16667C6.63765 22.8554 6.12951 22.9393 5.65 23.0889V7.17204C5.65 6.33488 6.32951 5.65537 7.16667 5.65537Z" stroke="#8C4918" stroke-width="0.3"/>
</g>
</g>
<defs>
<filter id="filter0_i_494_13727" x="5.5" y="26.3389" width="20" height="19.1665" filterUnits="userSpaceOnUse" color-interpolation-filters="sRGB">
<feFlood flood-opacity="0" result="BackgroundImageFix"/>
<feBlend mode="normal" in="SourceGraphic" in2="BackgroundImageFix" result="shape"/>
<feColorMatrix in="SourceAlpha" type="matrix" values="0 0 0 0 0 0 0 0 0 0 0 0 0 0 0 0 0 0 127 0" result="hardAlpha"/>
<feOffset dx="1" dy="-1"/>
<feComposite in2="hardAlpha" operator="arithmetic" k2="-1" k3="1"/>
<feColorMatrix type="matrix" values="0 0 0 0 0 0 0 0 0 0 0 0 0 0 0 0 0 0 0.2 0"/>
<feBlend mode="normal" in2="shape" result="effect1_innerShadow_494_13727"/>
</filter>
<filter id="filter1_i_494_13727" x="5.5" y="5.50537" width="40" height="40" filterUnits="userSpaceOnUse" color-interpolation-filters="sRGB">
<feFlood flood-opacity="0" result="BackgroundImageFix"/>
<feBlend mode="normal" in="SourceGraphic" in2="BackgroundImageFix" result="shape"/>
<feColorMatrix in="SourceAlpha" type="matrix" values="0 0 0 0 0 0 0 0 0 0 0 0 0 0 0 0 0 0 127 0" result="hardAlpha"/>
<feOffset dx="1" dy="-1"/>
<feComposite in2="hardAlpha" operator="arithmetic" k2="-1" k3="1"/>
<feColorMatrix type="matrix" values="0 0 0 0 0 0 0 0 0 0 0 0 0 0 0 0 0 0 0.2 0"/>
<feBlend mode="normal" in2="shape" result="effect1_innerShadow_494_13727"/>
</filter>
</defs>
</svg>
