<svg width="24" height="25" viewBox="0 0 24 25" fill="none" xmlns="http://www.w3.org/2000/svg">
<g id="ri:instagram-fill">
<path id="Vector" d="M13.028 2.5066C13.7578 2.5038 14.4875 2.51114 15.217 2.5286L15.411 2.5356C15.635 2.5436 15.856 2.5536 16.123 2.5656C17.187 2.6156 17.913 2.7836 18.55 3.0306C19.21 3.2846 19.766 3.6286 20.322 4.1846C20.8304 4.68421 21.2239 5.28855 21.475 5.9556C21.722 6.5926 21.89 7.3196 21.94 8.3836C21.952 8.6496 21.962 8.8716 21.97 9.0956L21.976 9.2896C21.9938 10.0188 22.0015 10.7482 21.999 11.4776L22 12.2236V13.5336C22.0025 14.2633 21.9948 14.9931 21.977 15.7226L21.971 15.9166C21.963 16.1406 21.953 16.3616 21.941 16.6286C21.891 17.6926 21.721 18.4186 21.475 19.0556C21.2247 19.7234 20.8311 20.3282 20.322 20.8276C19.822 21.3359 19.2173 21.7294 18.55 21.9806C17.913 22.2276 17.187 22.3956 16.123 22.4456C15.856 22.4576 15.635 22.4676 15.411 22.4756L15.217 22.4816C14.4875 22.4994 13.7578 22.507 13.028 22.5046L12.282 22.5056H10.973C10.2433 22.5081 9.51355 22.5004 8.78403 22.4826L8.59003 22.4766C8.35264 22.468 8.1153 22.458 7.87803 22.4466C6.81403 22.3966 6.08803 22.2266 5.45003 21.9806C4.78271 21.7299 4.17827 21.3364 3.67903 20.8276C3.17007 20.3279 2.77625 19.7232 2.52503 19.0556C2.27803 18.4186 2.11003 17.6926 2.06003 16.6286C2.04889 16.3913 2.03889 16.154 2.03003 15.9166L2.02503 15.7226C2.00659 14.9931 1.99826 14.2633 2.00003 13.5336V11.4776C1.99724 10.7482 2.00457 10.0188 2.02203 9.2896L2.02903 9.0956C2.03703 8.8716 2.04703 8.6496 2.05903 8.3836C2.10903 7.3186 2.27703 6.5936 2.52403 5.9556C2.7754 5.28822 3.16999 4.68405 3.68003 4.1856C4.17892 3.67635 4.78299 3.28217 5.45003 3.0306C6.08803 2.7836 6.81303 2.6156 7.87803 2.5656L8.59003 2.5356L8.78403 2.5306C9.51321 2.51217 10.2426 2.50384 10.972 2.5056L13.028 2.5066ZM12 7.5066C11.3375 7.49723 10.6798 7.61963 10.065 7.86667C9.45022 8.11371 8.89067 8.48048 8.41887 8.94566C7.94707 9.41083 7.57243 9.96514 7.31671 10.5764C7.061 11.1876 6.92932 11.8435 6.92932 12.5061C6.92932 13.1687 7.061 13.8246 7.31671 14.4358C7.57243 15.0471 7.94707 15.6014 8.41887 16.0665C8.89067 16.5317 9.45022 16.8985 10.065 17.1455C10.6798 17.3926 11.3375 17.515 12 17.5056C13.3261 17.5056 14.5979 16.9788 15.5356 16.0411C16.4732 15.1035 17 13.8317 17 12.5056C17 11.1795 16.4732 9.90775 15.5356 8.97007C14.5979 8.03239 13.3261 7.5066 12 7.5066ZM12 9.5066C12.3985 9.49926 12.7945 9.5714 13.1648 9.71881C13.5351 9.86622 13.8724 10.0859 14.1568 10.3651C14.4412 10.6443 14.6672 10.9774 14.8215 11.3449C14.9757 11.7125 15.0552 12.107 15.0553 12.5056C15.0554 12.9042 14.976 13.2988 14.8219 13.6663C14.6677 14.0339 14.4419 14.367 14.1575 14.6463C13.8732 14.9256 13.536 15.1455 13.1658 15.293C12.7955 15.4405 12.3995 15.5128 12.001 15.5056C11.2054 15.5056 10.4423 15.1895 9.87971 14.6269C9.3171 14.0643 9.00103 13.3013 9.00103 12.5056C9.00103 11.71 9.3171 10.9469 9.87971 10.3843C10.4423 9.82167 11.2054 9.5056 12.001 9.5056L12 9.5066ZM17.25 6.0066C16.9274 6.01951 16.6223 6.15675 16.3986 6.38957C16.1749 6.62239 16.05 6.93274 16.05 7.2556C16.05 7.57847 16.1749 7.88881 16.3986 8.12163C16.6223 8.35445 16.9274 8.49169 17.25 8.5046C17.5815 8.5046 17.8995 8.37291 18.1339 8.13848C18.3683 7.90406 18.5 7.58612 18.5 7.2546C18.5 6.92308 18.3683 6.60514 18.1339 6.37072C17.8995 6.1363 17.5815 6.0046 17.25 6.0046V6.0066Z" fill="white"/>
</g>
</svg>
