<svg width="51" height="51" viewBox="0 0 51 51" fill="none" xmlns="http://www.w3.org/2000/svg">
<g id="Social network">
<g id="Vector">
<g filter="url(#filter0_i_494_13717)">
<path d="M12.1667 3.00537C7.10417 3.00537 3 7.10954 3 12.172C3 17.2345 7.10417 21.3387 12.1667 21.3387C17.2292 21.3387 21.3333 17.2345 21.3333 12.172C21.3333 7.10954 17.2292 3.00537 12.1667 3.00537ZM12.1667 6.3387C13.5475 6.3387 14.6667 7.45787 14.6667 8.8387C14.6667 10.2195 13.5475 11.3387 12.1667 11.3387C10.7858 11.3387 9.66667 10.2195 9.66667 8.8387C9.66667 7.45787 10.7858 6.3387 12.1667 6.3387ZM16.3117 17.3879C15.1733 18.2937 13.7342 18.8387 12.1667 18.8387C10.5992 18.8387 9.16 18.2937 8.02167 17.3879C8.0175 17.3145 8 17.2462 8 17.172C8 14.8704 9.86583 13.0054 12.1667 13.0054C14.4675 13.0054 16.3333 14.8704 16.3333 17.172C16.3333 17.2462 16.3158 17.3145 16.3117 17.3879Z" fill="#FF842C"/>
</g>
<path d="M16.4051 17.5052L16.4576 17.4634L16.4614 17.3964C16.4629 17.3712 16.4662 17.3469 16.4706 17.3156C16.4713 17.3108 16.472 17.3059 16.4727 17.3007C16.4776 17.2646 16.4833 17.2202 16.4833 17.172C16.4833 14.7875 14.5503 12.8554 12.1667 12.8554C9.78301 12.8554 7.85 14.7875 7.85 17.172C7.85 17.2202 7.85569 17.2646 7.86068 17.3007C7.86138 17.3059 7.86207 17.3108 7.86274 17.3156C7.86709 17.3469 7.87048 17.3712 7.87191 17.3964L7.87572 17.4634L7.92827 17.5052C9.09194 18.4312 10.5637 18.9887 12.1667 18.9887C13.7696 18.9887 15.2414 18.4312 16.4051 17.5052ZM3.15 12.172C3.15 7.19238 7.18701 3.15537 12.1667 3.15537C17.1463 3.15537 21.1833 7.19238 21.1833 12.172C21.1833 17.1517 17.1463 21.1887 12.1667 21.1887C7.18701 21.1887 3.15 17.1517 3.15 12.172ZM14.8167 8.8387C14.8167 7.37503 13.6303 6.1887 12.1667 6.1887C10.703 6.1887 9.51667 7.37503 9.51667 8.8387C9.51667 10.3024 10.703 11.4887 12.1667 11.4887C13.6303 11.4887 14.8167 10.3024 14.8167 8.8387Z" stroke="#8C4918" stroke-width="0.3"/>
</g>
<g id="Vector_2">
<g filter="url(#filter1_i_494_13717)">
<path d="M38.8333 29.6719C33.7708 29.6719 29.6666 33.776 29.6666 38.8385C29.6666 43.901 33.7708 48.0052 38.8333 48.0052C43.8958 48.0052 48 43.901 48 38.8385C48 33.776 43.8958 29.6719 38.8333 29.6719ZM38.8333 33.0052C40.2141 33.0052 41.3333 34.1244 41.3333 35.5052C41.3333 36.886 40.2141 38.0052 38.8333 38.0052C37.4525 38.0052 36.3333 36.886 36.3333 35.5052C36.3333 34.1244 37.4525 33.0052 38.8333 33.0052ZM42.9783 44.0544C41.84 44.9602 40.4008 45.5052 38.8333 45.5052C37.2658 45.5052 35.8266 44.9602 34.6883 44.0544C34.6841 43.981 34.6666 43.9127 34.6666 43.8385C34.6666 41.5369 36.5325 39.6719 38.8333 39.6719C41.1341 39.6719 43 41.5369 43 43.8385C43 43.9127 42.9825 43.981 42.9783 44.0544Z" fill="#FF842C"/>
</g>
<path d="M43.0717 44.1717L43.1242 44.1299L43.1281 44.0629C43.1295 44.0377 43.1329 44.0134 43.1372 43.9821C43.1379 43.9773 43.1386 43.9724 43.1393 43.9673C43.1443 43.9311 43.15 43.8867 43.15 43.8385C43.15 41.454 41.2169 39.5219 38.8333 39.5219C36.4496 39.5219 34.5166 41.454 34.5166 43.8385C34.5166 43.8867 34.5223 43.9311 34.5273 43.9673C34.528 43.9724 34.5287 43.9773 34.5294 43.9821C34.5337 44.0134 34.5371 44.0377 34.5385 44.0629L34.5423 44.1299L34.5949 44.1717C35.7586 45.0977 37.2304 45.6552 38.8333 45.6552C40.4362 45.6552 41.908 45.0977 43.0717 44.1717ZM29.8166 38.8385C29.8166 33.8589 33.8536 29.8219 38.8333 29.8219C43.813 29.8219 47.85 33.8589 47.85 38.8385C47.85 43.8182 43.813 47.8552 38.8333 47.8552C33.8536 47.8552 29.8166 43.8182 29.8166 38.8385ZM41.4833 35.5052C41.4833 34.0415 40.297 32.8552 38.8333 32.8552C37.3696 32.8552 36.1833 34.0415 36.1833 35.5052C36.1833 36.9689 37.3696 38.1552 38.8333 38.1552C40.297 38.1552 41.4833 36.9689 41.4833 35.5052Z" stroke="#8C4918" stroke-width="0.3"/>
</g>
<g id="Vector_3">
<g filter="url(#filter2_i_494_13717)">
<path d="M17.8384 35.6338C15.185 36.283 12.8467 37.1696 10.9817 38.0105C13.6359 41.0888 17.2492 43.313 21.3609 44.2188C20.3217 42.3005 18.9042 39.3071 17.8384 35.6338Z" fill="#FF842C"/>
</g>
<path d="M21.0726 43.9988C17.1938 43.0732 13.7786 40.9607 11.2278 38.0646C13.0217 37.2664 15.2358 36.4357 17.7347 35.8139C18.7465 39.2566 20.0607 42.0938 21.0726 43.9988Z" stroke="#8C4918" stroke-width="0.3"/>
</g>
<g id="Vector_4">
<g filter="url(#filter3_i_494_13717)">
<path d="M29.6392 6.79199C30.6792 8.71033 32.0958 11.7037 33.1625 15.377C35.8158 14.7278 38.1542 13.8412 40.0192 13.0003C37.3642 9.92199 33.75 7.69699 29.6392 6.79199Z" fill="#FF842C"/>
</g>
<path d="M33.2661 15.1969C32.2536 11.7542 30.94 8.917 29.9275 7.01199C33.8055 7.93685 37.2215 10.0501 39.773 12.9462C37.9791 13.7444 35.765 14.5751 33.2661 15.1969Z" stroke="#8C4918" stroke-width="0.3"/>
</g>
<g id="Vector_5">
<g filter="url(#filter4_i_494_13717)">
<path d="M30.955 30.2522C31.1925 28.7339 31.3333 27.1447 31.3333 25.5056C31.3333 23.3206 31.0825 21.2239 30.6883 19.2681C29.0316 19.5222 27.2933 19.6722 25.5 19.6722C24.0625 19.6722 22.6641 19.5722 21.3116 19.4031C20.9266 19.8889 20.5025 20.3406 20.045 20.7589C19.8075 22.2772 19.6666 23.8664 19.6666 25.5056C19.6666 27.6906 19.9175 29.7872 20.3116 31.7431C21.9683 31.4889 23.7066 31.3389 25.5 31.3389C26.9375 31.3389 28.3358 31.4389 29.6883 31.6081C30.0733 31.1214 30.4983 30.6706 30.955 30.2522Z" fill="#FF842C"/>
</g>
<path d="M31.1833 25.5056C31.1833 27.1176 31.0464 28.6815 30.8148 30.1773C30.3881 30.5715 29.9886 30.9944 29.6234 31.4489C28.2914 31.2853 26.9148 31.1889 25.5 31.1889C23.7494 31.1889 22.0515 31.3312 20.4307 31.5733C20.0544 29.6658 19.8166 27.6271 19.8166 25.5056C19.8166 23.8936 19.9535 22.3297 20.1851 20.8339C20.6127 20.4395 21.0114 20.0159 21.3765 19.5623C22.7084 19.7258 24.0851 19.8222 25.5 19.8222C27.2505 19.8222 28.9484 19.68 30.5692 19.4378C30.9456 21.3453 31.1833 23.384 31.1833 25.5056Z" stroke="#8C4918" stroke-width="0.3"/>
</g>
<g id="Vector_6">
<g filter="url(#filter5_i_494_13717)">
<path d="M25.5 6.33887C25.5 6.33887 24.6409 7.6072 23.5817 9.7647C23.745 10.5414 23.8334 11.3464 23.8334 12.1722C23.8334 13.6022 23.5634 14.9664 23.0925 16.233C23.8817 16.298 24.6834 16.3389 25.5 16.3389C27.0059 16.3389 28.4684 16.2172 29.8742 16.0155C28.1459 10.2372 25.5 6.33887 25.5 6.33887Z" fill="#FF842C"/>
</g>
<path d="M25.5001 6.61313C25.5748 6.72959 25.6808 6.89829 25.812 7.11577C26.0856 7.56903 26.4687 8.23402 26.9057 9.07923C27.7631 10.7371 28.8274 13.087 29.6801 15.8914C28.3335 16.0776 26.9363 16.1889 25.5 16.1889C24.7557 16.1889 24.0232 16.1547 23.3006 16.0991C23.7355 14.8697 23.9834 13.5514 23.9834 12.1722C23.9834 11.3536 23.8977 10.5554 23.7391 9.78462C24.2577 8.73153 24.7266 7.89457 25.0671 7.31911C25.2399 7.02719 25.3795 6.80261 25.4758 6.65127C25.4842 6.63799 25.4924 6.62528 25.5001 6.61313Z" stroke="#8C4918" stroke-width="0.3"/>
</g>
<g id="Vector_7">
<g filter="url(#filter6_i_494_13717)">
<path d="M27.1667 38.8385C27.1667 37.4085 27.4367 36.0435 27.9075 34.7777C27.1184 34.7127 26.3167 34.6719 25.5 34.6719C23.9942 34.6719 22.5317 34.7935 21.1259 34.9952C22.8542 40.7735 25.5 44.6719 25.5 44.6719C25.5 44.6719 26.3592 43.4035 27.4184 41.246C27.255 40.4694 27.1667 39.6644 27.1667 38.8385Z" fill="#FF842C"/>
</g>
<path d="M21.32 35.1193C22.6666 34.9332 24.0638 34.8219 25.5 34.8219C26.2444 34.8219 26.9768 34.856 27.6994 34.9116C27.2645 36.1404 27.0167 37.4594 27.0167 38.8385C27.0167 39.6571 27.1024 40.4554 27.261 41.2261C26.7424 42.2792 26.2734 43.1162 25.9329 43.6916C25.7602 43.9835 25.6205 44.2081 25.5243 44.3595C25.5158 44.3727 25.5077 44.3855 25.4999 44.3976C25.4253 44.2812 25.3193 44.1124 25.188 43.895C24.9145 43.4417 24.5314 42.7767 24.0943 41.9315C23.237 40.2737 22.1727 37.9238 21.32 35.1193Z" stroke="#8C4918" stroke-width="0.3"/>
</g>
<g id="Vector_8">
<g filter="url(#filter7_i_494_13717)">
<path d="M16.4392 23.0202C15.115 23.5427 13.6767 23.8385 12.1667 23.8385C10.1467 23.8385 8.24754 23.3244 6.59171 22.4219C6.42754 23.426 6.33337 24.4544 6.33337 25.5052C6.33337 29.0644 7.30671 32.396 8.99754 35.2519C11.115 34.2585 13.8692 33.1735 17.0425 32.3977C16.6092 30.2427 16.3334 27.926 16.3334 25.5052C16.3334 24.661 16.3775 23.836 16.4392 23.0202Z" fill="#FF842C"/>
</g>
<path d="M12.1667 23.9885C13.6125 23.9885 14.9932 23.7208 16.2723 23.2448C16.2197 23.9862 16.1834 24.7375 16.1834 25.5052C16.1834 27.8847 16.4486 30.1631 16.8674 32.2864C13.8026 33.0473 11.1339 34.0921 9.05775 35.0582C7.42265 32.251 6.48337 28.9881 6.48337 25.5052C6.48337 24.5354 6.56426 23.5844 6.70692 22.6533C8.33956 23.5055 10.1966 23.9885 12.1667 23.9885Z" stroke="#8C4918" stroke-width="0.3"/>
</g>
<g id="Vector_9">
<g filter="url(#filter8_i_494_13717)">
<path d="M34.5609 27.9905C35.885 27.468 37.3234 27.1721 38.8334 27.1721C40.8534 27.1721 42.7525 27.6863 44.4084 28.5888C44.5725 27.5846 44.6667 26.5563 44.6667 25.5055C44.6667 21.9463 43.6934 18.6146 42.0025 15.7588C39.885 16.7521 37.1309 17.8371 33.9575 18.613C34.3909 20.768 34.6667 23.0846 34.6667 25.5055C34.6667 26.3496 34.6225 27.1746 34.5609 27.9905Z" fill="#FF842C"/>
</g>
<path d="M38.8334 27.0221C37.3876 27.0221 36.0068 27.2898 34.7277 27.7659C34.7804 27.0244 34.8167 26.2732 34.8167 25.5055C34.8167 23.126 34.5514 20.8475 34.1326 18.7243C37.1975 17.9634 39.8662 16.9185 41.9423 15.9525C43.5774 18.7597 44.5167 22.0226 44.5167 25.5055C44.5167 26.4752 44.4358 27.4263 44.2931 28.3573C42.6605 27.5051 40.8035 27.0221 38.8334 27.0221Z" stroke="#8C4918" stroke-width="0.3"/>
</g>
</g>
<defs>
<filter id="filter0_i_494_13717" x="3" y="3.00537" width="18.3334" height="18.3335" filterUnits="userSpaceOnUse" color-interpolation-filters="sRGB">
<feFlood flood-opacity="0" result="BackgroundImageFix"/>
<feBlend mode="normal" in="SourceGraphic" in2="BackgroundImageFix" result="shape"/>
<feColorMatrix in="SourceAlpha" type="matrix" values="0 0 0 0 0 0 0 0 0 0 0 0 0 0 0 0 0 0 127 0" result="hardAlpha"/>
<feOffset dx="1" dy="-1"/>
<feComposite in2="hardAlpha" operator="arithmetic" k2="-1" k3="1"/>
<feColorMatrix type="matrix" values="0 0 0 0 0 0 0 0 0 0 0 0 0 0 0 0 0 0 0.2 0"/>
<feBlend mode="normal" in2="shape" result="effect1_innerShadow_494_13717"/>
</filter>
<filter id="filter1_i_494_13717" x="29.6666" y="29.6719" width="18.3334" height="18.3335" filterUnits="userSpaceOnUse" color-interpolation-filters="sRGB">
<feFlood flood-opacity="0" result="BackgroundImageFix"/>
<feBlend mode="normal" in="SourceGraphic" in2="BackgroundImageFix" result="shape"/>
<feColorMatrix in="SourceAlpha" type="matrix" values="0 0 0 0 0 0 0 0 0 0 0 0 0 0 0 0 0 0 127 0" result="hardAlpha"/>
<feOffset dx="1" dy="-1"/>
<feComposite in2="hardAlpha" operator="arithmetic" k2="-1" k3="1"/>
<feColorMatrix type="matrix" values="0 0 0 0 0 0 0 0 0 0 0 0 0 0 0 0 0 0 0.2 0"/>
<feBlend mode="normal" in2="shape" result="effect1_innerShadow_494_13717"/>
</filter>
<filter id="filter2_i_494_13717" x="10.9817" y="35.6338" width="10.3792" height="8.58496" filterUnits="userSpaceOnUse" color-interpolation-filters="sRGB">
<feFlood flood-opacity="0" result="BackgroundImageFix"/>
<feBlend mode="normal" in="SourceGraphic" in2="BackgroundImageFix" result="shape"/>
<feColorMatrix in="SourceAlpha" type="matrix" values="0 0 0 0 0 0 0 0 0 0 0 0 0 0 0 0 0 0 127 0" result="hardAlpha"/>
<feOffset dx="1" dy="-1"/>
<feComposite in2="hardAlpha" operator="arithmetic" k2="-1" k3="1"/>
<feColorMatrix type="matrix" values="0 0 0 0 0 0 0 0 0 0 0 0 0 0 0 0 0 0 0.2 0"/>
<feBlend mode="normal" in2="shape" result="effect1_innerShadow_494_13717"/>
</filter>
<filter id="filter3_i_494_13717" x="29.6392" y="6.79199" width="10.38" height="8.58496" filterUnits="userSpaceOnUse" color-interpolation-filters="sRGB">
<feFlood flood-opacity="0" result="BackgroundImageFix"/>
<feBlend mode="normal" in="SourceGraphic" in2="BackgroundImageFix" result="shape"/>
<feColorMatrix in="SourceAlpha" type="matrix" values="0 0 0 0 0 0 0 0 0 0 0 0 0 0 0 0 0 0 127 0" result="hardAlpha"/>
<feOffset dx="1" dy="-1"/>
<feComposite in2="hardAlpha" operator="arithmetic" k2="-1" k3="1"/>
<feColorMatrix type="matrix" values="0 0 0 0 0 0 0 0 0 0 0 0 0 0 0 0 0 0 0.2 0"/>
<feBlend mode="normal" in2="shape" result="effect1_innerShadow_494_13717"/>
</filter>
<filter id="filter4_i_494_13717" x="19.6666" y="19.2681" width="11.6666" height="12.4751" filterUnits="userSpaceOnUse" color-interpolation-filters="sRGB">
<feFlood flood-opacity="0" result="BackgroundImageFix"/>
<feBlend mode="normal" in="SourceGraphic" in2="BackgroundImageFix" result="shape"/>
<feColorMatrix in="SourceAlpha" type="matrix" values="0 0 0 0 0 0 0 0 0 0 0 0 0 0 0 0 0 0 127 0" result="hardAlpha"/>
<feOffset dx="1" dy="-1"/>
<feComposite in2="hardAlpha" operator="arithmetic" k2="-1" k3="1"/>
<feColorMatrix type="matrix" values="0 0 0 0 0 0 0 0 0 0 0 0 0 0 0 0 0 0 0.2 0"/>
<feBlend mode="normal" in2="shape" result="effect1_innerShadow_494_13717"/>
</filter>
<filter id="filter5_i_494_13717" x="23.0925" y="6.33887" width="6.78162" height="10" filterUnits="userSpaceOnUse" color-interpolation-filters="sRGB">
<feFlood flood-opacity="0" result="BackgroundImageFix"/>
<feBlend mode="normal" in="SourceGraphic" in2="BackgroundImageFix" result="shape"/>
<feColorMatrix in="SourceAlpha" type="matrix" values="0 0 0 0 0 0 0 0 0 0 0 0 0 0 0 0 0 0 127 0" result="hardAlpha"/>
<feOffset dx="1" dy="-1"/>
<feComposite in2="hardAlpha" operator="arithmetic" k2="-1" k3="1"/>
<feColorMatrix type="matrix" values="0 0 0 0 0 0 0 0 0 0 0 0 0 0 0 0 0 0 0.2 0"/>
<feBlend mode="normal" in2="shape" result="effect1_innerShadow_494_13717"/>
</filter>
<filter id="filter6_i_494_13717" x="21.1259" y="34.6719" width="6.78162" height="10" filterUnits="userSpaceOnUse" color-interpolation-filters="sRGB">
<feFlood flood-opacity="0" result="BackgroundImageFix"/>
<feBlend mode="normal" in="SourceGraphic" in2="BackgroundImageFix" result="shape"/>
<feColorMatrix in="SourceAlpha" type="matrix" values="0 0 0 0 0 0 0 0 0 0 0 0 0 0 0 0 0 0 127 0" result="hardAlpha"/>
<feOffset dx="1" dy="-1"/>
<feComposite in2="hardAlpha" operator="arithmetic" k2="-1" k3="1"/>
<feColorMatrix type="matrix" values="0 0 0 0 0 0 0 0 0 0 0 0 0 0 0 0 0 0 0.2 0"/>
<feBlend mode="normal" in2="shape" result="effect1_innerShadow_494_13717"/>
</filter>
<filter id="filter7_i_494_13717" x="6.33337" y="22.4219" width="10.7091" height="12.8301" filterUnits="userSpaceOnUse" color-interpolation-filters="sRGB">
<feFlood flood-opacity="0" result="BackgroundImageFix"/>
<feBlend mode="normal" in="SourceGraphic" in2="BackgroundImageFix" result="shape"/>
<feColorMatrix in="SourceAlpha" type="matrix" values="0 0 0 0 0 0 0 0 0 0 0 0 0 0 0 0 0 0 127 0" result="hardAlpha"/>
<feOffset dx="1" dy="-1"/>
<feComposite in2="hardAlpha" operator="arithmetic" k2="-1" k3="1"/>
<feColorMatrix type="matrix" values="0 0 0 0 0 0 0 0 0 0 0 0 0 0 0 0 0 0 0.2 0"/>
<feBlend mode="normal" in2="shape" result="effect1_innerShadow_494_13717"/>
</filter>
<filter id="filter8_i_494_13717" x="33.9575" y="15.7588" width="10.7092" height="12.8301" filterUnits="userSpaceOnUse" color-interpolation-filters="sRGB">
<feFlood flood-opacity="0" result="BackgroundImageFix"/>
<feBlend mode="normal" in="SourceGraphic" in2="BackgroundImageFix" result="shape"/>
<feColorMatrix in="SourceAlpha" type="matrix" values="0 0 0 0 0 0 0 0 0 0 0 0 0 0 0 0 0 0 127 0" result="hardAlpha"/>
<feOffset dx="1" dy="-1"/>
<feComposite in2="hardAlpha" operator="arithmetic" k2="-1" k3="1"/>
<feColorMatrix type="matrix" values="0 0 0 0 0 0 0 0 0 0 0 0 0 0 0 0 0 0 0.2 0"/>
<feBlend mode="normal" in2="shape" result="effect1_innerShadow_494_13717"/>
</filter>
</defs>
</svg>
