<svg width="51" height="51" viewBox="0 0 51 51" fill="none" xmlns="http://www.w3.org/2000/svg">
<g id="Social network_3">
<g id="Vector">
<g filter="url(#filter0_i_494_13730)">
<path d="M46.3334 22.1722C45.1025 22.1722 44.04 22.8472 43.4625 23.8389H38.7184C38.3884 21.2005 37.2934 18.803 35.6542 16.8764L39.6475 12.8822C39.9217 12.9539 40.2034 13.0055 40.5 13.0055C42.3409 13.0055 43.8334 11.513 43.8334 9.6722C43.8334 7.83137 42.3409 6.33887 40.5 6.33887C38.6592 6.33887 37.1667 7.83137 37.1667 9.6722C37.1667 9.96887 37.2184 10.2505 37.29 10.5247L33.19 14.6247C31.445 13.3897 29.3925 12.5647 27.1667 12.2872V7.54303C28.1584 6.96553 28.8334 5.90303 28.8334 4.6722C28.8334 2.83137 27.3409 1.33887 25.5 1.33887C23.6592 1.33887 22.1667 2.83137 22.1667 4.6722C22.1667 5.90303 22.8417 6.96553 23.8334 7.54303V12.2872C21.4009 12.5905 19.1767 13.5489 17.3334 14.9805L12.8767 10.5239C12.9484 10.2505 13 9.96887 13 9.6722C13 7.83137 11.5075 6.33887 9.66671 6.33887C7.82587 6.33887 6.33337 7.83137 6.33337 9.6722C6.33337 11.513 7.82587 13.0055 9.66671 13.0055C9.96337 13.0055 10.245 12.9539 10.5192 12.8822L14.9759 17.3397C13.5434 19.183 12.5859 21.4072 12.2817 23.8397H7.53754C6.96004 22.8472 5.89754 22.1722 4.66671 22.1722C2.82587 22.1722 1.33337 23.6647 1.33337 25.5055C1.33337 27.3464 2.82587 28.8389 4.66671 28.8389C5.89754 28.8389 6.96004 28.1639 7.53754 27.1722H12.2817C12.5859 29.6047 13.5434 31.8289 14.9759 33.6722L10.5192 38.1297C10.245 38.0572 9.96337 38.0055 9.66671 38.0055C7.82587 38.0055 6.33337 39.498 6.33337 41.3389C6.33337 43.1797 7.82587 44.6722 9.66671 44.6722C11.5075 44.6722 13 43.1797 13 41.3389C13 41.043 12.9484 40.7605 12.8767 40.4864L17.3334 36.0297C19.1767 37.4622 21.4009 38.4197 23.8334 38.723V43.4672C22.8417 44.0447 22.1667 45.108 22.1667 46.338C22.1667 48.1789 23.6592 49.6714 25.5 49.6714C27.3409 49.6714 28.8334 48.1789 28.8334 46.338C28.8334 45.1072 28.1584 44.0447 27.1667 43.4672V38.723C29.5992 38.4197 31.8234 37.4614 33.6667 36.0297L38.1234 40.4864C38.0517 40.7605 38 41.043 38 41.3389C38 43.1797 39.4925 44.6722 41.3334 44.6722C43.1742 44.6722 44.6667 43.1797 44.6667 41.3389C44.6667 39.498 43.1742 38.0055 41.3334 38.0055C41.0367 38.0055 40.755 38.0572 40.4809 38.1289L36.0242 33.6722C37.4567 31.8289 38.4142 29.6047 38.7184 27.1722H43.4625C44.04 28.1639 45.1034 28.8389 46.3334 28.8389C48.1742 28.8389 49.6667 27.3464 49.6667 25.5055C49.6667 23.6647 48.1742 22.1722 46.3334 22.1722ZM25.5 18.0055C27.3409 18.0055 28.8334 19.498 28.8334 21.3389C28.8334 23.1797 27.3409 24.6722 25.5 24.6722C23.6592 24.6722 22.1667 23.1797 22.1667 21.3389C22.1667 19.498 23.6592 18.0055 25.5 18.0055ZM25.5 33.0055C23.6217 33.0055 21.8942 32.3764 20.5 31.3272C20.5059 28.5722 22.7417 26.3389 25.5 26.3389C28.2584 26.3389 30.4934 28.5722 30.5 31.3272C29.1059 32.3764 27.3775 33.0055 25.5 33.0055Z" fill="#FF842C"/>
</g>
<path d="M43.4625 23.9889H43.5488L43.5922 23.9144C44.1446 22.9657 45.1594 22.3222 46.3334 22.3222C48.0914 22.3222 49.5167 23.7475 49.5167 25.5055C49.5167 27.2635 48.0914 28.6889 46.3334 28.6889C45.1602 28.6889 44.1446 28.0453 43.5922 27.0967L43.5488 27.0222H43.4625H38.7184H38.586L38.5695 27.1536C38.2688 29.5585 37.3222 31.7575 35.9058 33.5802L35.8245 33.6847L35.9181 33.7783L40.3748 38.2349L40.4356 38.2957L40.5188 38.274C40.786 38.2041 41.0541 38.1555 41.3334 38.1555C43.0914 38.1555 44.5167 39.5809 44.5167 41.3389C44.5167 43.0969 43.0914 44.5222 41.3334 44.5222C39.5754 44.5222 38.15 43.0969 38.15 41.3389C38.15 41.0604 38.1987 40.7915 38.2685 40.5243L38.2902 40.4411L38.2294 40.3803L33.7728 35.9236L33.6792 35.8301L33.5747 35.9112C31.752 37.3269 29.553 38.2743 27.1481 38.5742L27.0167 38.5906V38.723V43.4672V43.5534L27.0912 43.5968C28.0398 44.1493 28.6834 45.1641 28.6834 46.338C28.6834 48.096 27.258 49.5214 25.5 49.5214C23.742 49.5214 22.3167 48.096 22.3167 46.338C22.3167 45.1649 22.9603 44.1492 23.9089 43.5968L23.9834 43.5534V43.4672V38.723V38.5906L23.8519 38.5742C21.447 38.2743 19.2481 37.3277 17.4254 35.9113L17.3209 35.83L17.2273 35.9236L12.7706 40.3803L12.7098 40.4411L12.7316 40.5243C12.8014 40.7915 12.85 41.0604 12.85 41.3389C12.85 43.0969 11.4247 44.5222 9.66671 44.5222C7.90872 44.5222 6.48337 43.0969 6.48337 41.3389C6.48337 39.5809 7.90872 38.1555 9.66671 38.1555C9.94595 38.1555 10.214 38.2041 10.4809 38.2747L10.5643 38.2968L10.6253 38.2358L15.082 33.7783L15.1755 33.6847L15.0943 33.5802C13.6779 31.7575 12.7313 29.5585 12.4305 27.1536L12.4141 27.0222H12.2817H7.53754H7.45131L7.40792 27.0967C6.85549 28.0453 5.84068 28.6889 4.66671 28.6889C2.90872 28.6889 1.48337 27.2635 1.48337 25.5055C1.48337 23.7475 2.90872 22.3222 4.66671 22.3222C5.84066 22.3222 6.85546 22.9657 7.40789 23.9151L7.45128 23.9897H7.53754H12.2817H12.4141L12.4305 23.8583C12.7313 21.4534 13.6779 19.2544 15.0943 17.4317L15.1755 17.3272L15.082 17.2336L10.6253 12.7761L10.5645 12.7153L10.4813 12.7371C10.2141 12.8069 9.94598 12.8555 9.66671 12.8555C7.90872 12.8555 6.48337 11.4302 6.48337 9.6722C6.48337 7.91421 7.90872 6.48887 9.66671 6.48887C11.4247 6.48887 12.85 7.91421 12.85 9.6722C12.85 9.95148 12.8014 10.2196 12.7316 10.4858L12.7098 10.5691L12.7706 10.6299L17.2273 15.0866L17.3209 15.1802L17.4254 15.099C19.2481 13.6833 21.4471 12.7359 23.8519 12.436L23.9834 12.4197V12.2872V7.54303V7.45681L23.9089 7.41341C22.9602 6.86098 22.3167 5.84617 22.3167 4.6722C22.3167 2.91421 23.742 1.48887 25.5 1.48887C27.258 1.48887 28.6834 2.91421 28.6834 4.6722C28.6834 5.84617 28.0398 6.86098 27.0912 7.41341L27.0167 7.45681V7.54303V12.2872V12.4197L27.1481 12.436C29.3488 12.7104 31.378 13.526 33.1034 14.7471L33.2067 14.8202L33.2961 14.7308L37.3961 10.6308L37.4569 10.57L37.4352 10.4868C37.3653 10.2196 37.3167 9.95148 37.3167 9.6722C37.3167 7.91421 38.7421 6.48887 40.5 6.48887C42.258 6.48887 43.6834 7.91421 43.6834 9.6722C43.6834 11.4302 42.258 12.8555 40.5 12.8555C40.2208 12.8555 39.9527 12.8069 39.6855 12.7371L39.6023 12.7153L39.5415 12.7761L35.5481 16.7703L35.4503 16.8682L35.54 16.9736C37.1607 18.8785 38.2433 21.2489 38.5695 23.8575L38.586 23.9889H38.7184H43.4625ZM20.35 31.3269L20.3499 31.4019L20.4098 31.4471C21.8287 32.5148 23.5875 33.1555 25.5 33.1555C27.4117 33.1555 29.1714 32.5148 30.5902 31.4471L30.6502 31.4019L30.65 31.3268C30.6432 28.4892 28.3412 26.1889 25.5 26.1889C22.659 26.1889 20.356 28.4892 20.35 31.3269ZM28.9834 21.3389C28.9834 19.4152 27.4237 17.8555 25.5 17.8555C23.5764 17.8555 22.0167 19.4152 22.0167 21.3389C22.0167 23.2625 23.5764 24.8222 25.5 24.8222C27.4237 24.8222 28.9834 23.2625 28.9834 21.3389Z" stroke="#8C4918" stroke-width="0.3"/>
</g>
</g>
<defs>
<filter id="filter0_i_494_13730" x="1.33337" y="1.33887" width="48.3334" height="48.3325" filterUnits="userSpaceOnUse" color-interpolation-filters="sRGB">
<feFlood flood-opacity="0" result="BackgroundImageFix"/>
<feBlend mode="normal" in="SourceGraphic" in2="BackgroundImageFix" result="shape"/>
<feColorMatrix in="SourceAlpha" type="matrix" values="0 0 0 0 0 0 0 0 0 0 0 0 0 0 0 0 0 0 127 0" result="hardAlpha"/>
<feOffset dx="1" dy="-1"/>
<feComposite in2="hardAlpha" operator="arithmetic" k2="-1" k3="1"/>
<feColorMatrix type="matrix" values="0 0 0 0 0 0 0 0 0 0 0 0 0 0 0 0 0 0 0.2 0"/>
<feBlend mode="normal" in2="shape" result="effect1_innerShadow_494_13730"/>
</filter>
</defs>
</svg>
