<svg width="24" height="25" viewBox="0 0 24 25" fill="none" xmlns="http://www.w3.org/2000/svg">
<path d="M12 22.5059C17.5228 22.5059 22 18.0287 22 12.5059C22 6.98301 17.5228 2.50586 12 2.50586C6.47715 2.50586 2 6.98301 2 12.5059C2 18.0287 6.47715 22.5059 12 22.5059Z" fill="white" stroke="white" stroke-width="1.5" stroke-miterlimit="10"/>
<path fill-rule="evenodd" clip-rule="evenodd" d="M6.32421 11.8194C9.40152 10.4786 11.4535 9.59474 12.4803 9.16769C15.4118 7.94837 16.0209 7.73656 16.418 7.72957C16.5053 7.72803 16.7005 7.74967 16.827 7.85229C16.9338 7.93895 16.9632 8.05601 16.9773 8.13817C16.9913 8.22032 17.0088 8.40748 16.9949 8.55372C16.836 10.2229 16.1487 14.2735 15.799 16.143C15.651 16.934 15.3596 17.1993 15.0775 17.2252C14.4645 17.2816 13.999 16.8201 13.4053 16.4309C12.4762 15.8219 11.9514 15.4428 11.0496 14.8485C10.0073 14.1617 10.683 13.7842 11.2769 13.1673C11.4324 13.0058 14.1333 10.5491 14.1856 10.3263C14.1921 10.2984 14.1982 10.1945 14.1365 10.1397C14.0747 10.0848 13.9836 10.1036 13.9179 10.1185C13.8247 10.1396 12.3405 11.1206 9.4653 13.0615C9.04401 13.3508 8.66242 13.4917 8.32053 13.4843C7.94363 13.4762 7.21861 13.2712 6.67964 13.096C6.01857 12.8811 5.49316 12.7675 5.53891 12.4026C5.56274 12.2125 5.82451 12.0181 6.32421 11.8194Z" fill="#101010"/>
</svg>
